<svg id="b7d89381-651a-428a-9016-6f1ffcd7b094" data-name="Warstwa 1" xmlns="http://www.w3.org/2000/svg" xmlns:xlink="http://www.w3.org/1999/xlink" viewBox="0 0 21.33 18.59">
  <defs>
    <style>
      .\37 4a46430-39b3-4642-8829-9bdf7302a7fb {
        fill: #fff;
      }
      .ae03a5ca-e302-43f9-9b50-90cca5d08442 {
        mask: url("#341b5067-11b7-43ec-a9d3-c214154f7b63");
      }
      .\35 f734df0-dcc9-4031-8c85-0c0e2dd4630a {
        fill: url("#4cd5e14d-d958-4ffc-8055-8510523cda3a");
      }
    </style>
    <mask id="341b5067-11b7-43ec-a9d3-c214154f7b63" x="0" y="0" width="21.33" height="18.59" maskUnits="userSpaceOnUse">
      <g transform="translate(0.64 -0.77)"><path
        class="74a46430-39b3-4642-8829-9bdf7302a7fb"
        d="M18.5,2H16V1.5a0.5,0.5,0,0,0-1,0V2H11.5a0.5,0.5,0,0,0,0,1H15V4.5a0.5,0.5,0,0,0,1,0V3h2.5a0.5,0.5,0,0,1,.5.5V6H13.5a0.5,0.5,0,0,0,0,1H19V17.5a0.5,0.5,0,0,1-.5.5H1.5A0.5,0.5,0,0,1,1,17.5V7H5.5a0.5,0.5,0,0,0,0-1H1V3.5A0.5,0.5,0,0,1,1.5,3H4V4.5a0.5,0.5,0,0,0,1,0V3H7.5a0.5,0.5,0,0,0,0-1H5V1.5a0.5,0.5,0,0,0-1,0V2H1.5A1.5,1.5,0,0,0,0,3.5v14A1.5,1.5,0,0,0,1.5,19h17A1.5,1.5,0,0,0,20,17.5V3.5A1.5,1.5,0,0,0,18.5,2Z"/><path class="74a46430-39b3-4642-8829-9bdf7302a7fb" d="M4.5,16h-1a0.5,0.5,0,0,1,0-1h1A0.5,0.5,0,0,1,4.5,16Z"/><path class="74a46430-39b3-4642-8829-9bdf7302a7fb" d="M7.5,16h-1a0.5,0.5,0,0,1,0-1h1A0.5,0.5,0,0,1,7.5,16Z"/><path class="74a46430-39b3-4642-8829-9bdf7302a7fb" d="M10.5,16h-1a0.5,0.5,0,0,1,0-1h1A0.5,0.5,0,0,1,10.5,16Z"/><path class="74a46430-39b3-4642-8829-9bdf7302a7fb" d="M13.5,16h-1a0.5,0.5,0,0,1,0-1h1A0.5,0.5,0,0,1,13.5,16Z"/><path class="74a46430-39b3-4642-8829-9bdf7302a7fb" d="M16.5,16h-1a0.5,0.5,0,0,1,0-1h1A0.5,0.5,0,0,1,16.5,16Z"/><path class="74a46430-39b3-4642-8829-9bdf7302a7fb" d="M7.5,14h-1a0.5,0.5,0,0,1,0-1h1A0.5,0.5,0,0,1,7.5,14Z"/><path class="74a46430-39b3-4642-8829-9bdf7302a7fb" d="M10.5,14h-1a0.5,0.5,0,0,1,0-1h1A0.5,0.5,0,0,1,10.5,14Z"/><path class="74a46430-39b3-4642-8829-9bdf7302a7fb" d="M13.5,14h-1a0.5,0.5,0,0,1,0-1h1A0.5,0.5,0,0,1,13.5,14Z"/><path class="74a46430-39b3-4642-8829-9bdf7302a7fb" d="M16.5,14h-1a0.5,0.5,0,0,1,0-1h1A0.5,0.5,0,0,1,16.5,14Z"/><path class="74a46430-39b3-4642-8829-9bdf7302a7fb" d="M4.5,12h-1a0.5,0.5,0,0,1,0-1h1A0.5,0.5,0,0,1,4.5,12Z"/><path class="74a46430-39b3-4642-8829-9bdf7302a7fb" d="M7.5,12h-1a0.5,0.5,0,0,1,0-1h1A0.5,0.5,0,0,1,7.5,12Z"/><path class="74a46430-39b3-4642-8829-9bdf7302a7fb" d="M10.5,12h-1a0.5,0.5,0,0,1,0-1h1A0.5,0.5,0,0,1,10.5,12Z"/><path class="74a46430-39b3-4642-8829-9bdf7302a7fb" d="M13.5,12h-1a0.5,0.5,0,0,1,0-1h1A0.5,0.5,0,0,1,13.5,12Z"/><path class="74a46430-39b3-4642-8829-9bdf7302a7fb" d="M16.5,12h-1a0.5,0.5,0,0,1,0-1h1A0.5,0.5,0,0,1,16.5,12Z"/><path class="74a46430-39b3-4642-8829-9bdf7302a7fb" d="M7.5,10h-1a0.5,0.5,0,0,1,0-1h1A0.5,0.5,0,0,1,7.5,10Z"/><path class="74a46430-39b3-4642-8829-9bdf7302a7fb" d="M10.5,10h-1a0.5,0.5,0,0,1,0-1h1A0.5,0.5,0,0,1,10.5,10Z"/><path class="74a46430-39b3-4642-8829-9bdf7302a7fb" d="M13.5,10h-1a0.5,0.5,0,0,1,0-1h1A0.5,0.5,0,0,1,13.5,10Z"/><path class="74a46430-39b3-4642-8829-9bdf7302a7fb" d="M16.5,10h-1a0.5,0.5,0,0,1,0-1h1A0.5,0.5,0,0,1,16.5,10Z"/><path class="74a46430-39b3-4642-8829-9bdf7302a7fb" d="M11.85,5.65a0.5,0.5,0,0,0-.71,0L10,6.79V2.5a0.5,0.5,0,1,0-1,0V6.79L7.86,5.65a0.5,0.5,0,0,0-.71.71l2,2a0.5,0.5,0,0,0,.71,0l2-2a0.5,0.5,0,0,0,0-.71h0Z"/><path class="74a46430-39b3-4642-8829-9bdf7302a7fb" d="M4.5,14h-1a0.5,0.5,0,0,1,0-1h1A0.5,0.5,0,0,1,4.5,14Z"/></g>
    </mask>
    <linearGradient id="4cd5e14d-d958-4ffc-8055-8510523cda3a" y1="9.29" x2="21.33" y2="9.29" gradientUnits="userSpaceOnUse"><stop offset="0" stop-color="#0495ff"/><stop offset="1" stop-color="#0079bf"/></linearGradient>
  </defs>
  <title>calendar-gradient</title>
  <g class="ae03a5ca-e302-43f9-9b50-90cca5d08442"><rect class="5f734df0-dcc9-4031-8c85-0c0e2dd4630a" width="21.33" height="18.59"/></g>
</svg>
