<svg id="7bdb3ccd-936d-4a6e-ab66-fe0fd0271847" data-name="9604870c-de15-4f30-91a7-c9de127a0978" xmlns="http://www.w3.org/2000/svg" xmlns:xlink="http://www.w3.org/1999/xlink" viewBox="0 0 15.01 20">
  <defs>
    <style>
      .ac3457e8-c2fd-4710-818b-ddaebff6fab8 {
        mask: url(#36eedcf4-547d-4d29-933a-2e3b108aa5f2);
      }

      .\37 e423382-bdba-467a-bd69-89997f52b636 {
        fill: url(#98f778a6-857c-4d39-a356-ca1aa45df552);
      }

      .\30 e6119f3-7df6-4a27-b3ef-e7a96640c637 {
        filter: url(#bb9f4acc-6bcd-40b6-aa0e-ede7c85fabd5);
      }
    </style>
    <filter id="bb9f4acc-6bcd-40b6-aa0e-ede7c85fabd5" filterUnits="userSpaceOnUse" color-interpolation-filters="sRGB">
      <feColorMatrix values="-1 0 0 0 1 0 -1 0 0 1 0 0 -1 0 1 0 0 0 1 0"/>
    </filter>
    <mask id="36eedcf4-547d-4d29-933a-2e3b108aa5f2" x="-0.01" y="0" width="15.03" height="20.02" maskUnits="userSpaceOnUse">
      <g class="0e6119f3-7df6-4a27-b3ef-e7a96640c637">
        <g transform="translate(0 -0.01)">
          <g>
            <path d="M9.5,13H6V12H9.5a0.5,0.5,0,0,0,0-1H8v-0.5a0.5,0.5,0,0,0-1,0V11H5.5a0.5,0.5,0,0,0-.5.5v2a0.5,0.5,0,0,0,.5.5H9v1H5.5a0.5,0.5,0,0,0,0,1H7v0.5a0.5,0.5,0,0,0,1,0V16H9.5a0.5,0.5,0,0,0,.5-0.5v-2A0.5,0.5,0,0,0,9.5,13Z"/>
            <path d="M13.73,10.15a19.1,19.1,0,0,0-2.36-3,8.84,8.84,0,0,1-1.29-1.63,3.69,3.69,0,0,0,.77-0.63,0.5,0.5,0,0,0-.63-0.77A4.48,4.48,0,0,1,11.8,1.91a0.5,0.5,0,0,0,.15-0.62A2.35,2.35,0,0,0,10,0,1.21,1.21,0,0,0,8.8.79C8.69,1,8.69,1,8.5,1A3.15,3.15,0,0,1,7.23.56,3.88,3.88,0,0,0,5.52,0h0A3.93,3.93,0,0,0,3.15,1.16a0.5,0.5,0,0,0,0,.71l0,0A4.43,4.43,0,0,1,4.76,4h0a0.5,0.5,0,0,0-.63.77,3.67,3.67,0,0,0,.77.63A8.83,8.83,0,0,1,3.63,7.13a19.08,19.08,0,0,0-2.36,3A8.37,8.37,0,0,0,0,14.51a4.78,4.78,0,0,0,2.24,4.43A10.14,10.14,0,0,0,7.5,20a10.14,10.14,0,0,0,5.26-1.07A4.78,4.78,0,0,0,15,14.51a8.36,8.36,0,0,0-1.27-4.36h0ZM4.28,1.51A2.36,2.36,0,0,1,5.51,1h0a3.15,3.15,0,0,1,1.27.45A3.88,3.88,0,0,0,8.5,2a1.21,1.21,0,0,0,1.2-.78C9.81,1,9.81,1,10,1a1.13,1.13,0,0,1,.82.42A5.49,5.49,0,0,0,9,4.85,5.91,5.91,0,0,1,7.5,5,5.91,5.91,0,0,1,6,4.85,5.5,5.5,0,0,0,4.28,1.51h0ZM7.5,19C2.94,19,1,17.66,1,14.51S2.95,9.37,4.37,7.8A8.22,8.22,0,0,0,5.85,5.85,7.36,7.36,0,0,0,7.5,6a7.36,7.36,0,0,0,1.65-.16A8.24,8.24,0,0,0,10.63,7.8C12.05,9.37,14,11.52,14,14.51c0,3.15-1.94,4.5-6.5,4.5h0Z"/>
          </g>
        </g>
      </g>
    </mask>
    <linearGradient id="98f778a6-857c-4d39-a356-ca1aa45df552" data-name="Gradient bez nazwy 6" x1="1.91" y1="2.38" x2="13.82" y2="18.59" gradientUnits="userSpaceOnUse">
      <stop offset="0" stop-color="#0495ff"/>
      <stop offset="1" stop-color="#0079bf"/>
    </linearGradient>
  </defs>
  <title>dollars-gradient</title>
  <g class="ac3457e8-c2fd-4710-818b-ddaebff6fab8">
    <rect class="7e423382-bdba-467a-bd69-89997f52b636" width="15.01" height="20"/>
  </g>
</svg>
