<svg xmlns="http://www.w3.org/2000/svg" viewBox="0 0 20 20">
  <defs>
    <style>
      .\31 29f1fef-8ddc-4350-8f98-89f2cad599dc {
        opacity: 0.7;
      }

      .\31 7eb8f30-e9d3-4d9b-aa10-ee61c6411ef4 {
        fill: #434343;
      }
    </style>
  </defs>
  <title>flag</title>
  <g id="abcff161-b097-40e8-a765-a03ba44a4b52" data-name="Warstwa 1" class="129f1fef-8ddc-4350-8f98-89f2cad599dc">
    <path class="17eb8f30-e9d3-4d9b-aa10-ee61c6411ef4" d="M1.5,20A0.5,0.5,0,0,1,1,19.5V4.5a0.5,0.5,0,1,1,1,0v15A0.5,0.5,0,0,1,1.5,20Z" transform="translate(0 0)"/>
    <path class="17eb8f30-e9d3-4d9b-aa10-ee61c6411ef4" d="M15.5,14a5.7,5.7,0,0,1-4.35-2.15A4.69,4.69,0,0,0,7.5,10a4.69,4.69,0,0,0-3.65,1.85,0.5,0.5,0,0,1-.71-0.71A5.7,5.7,0,0,1,7.5,9a5.7,5.7,0,0,1,4.35,2.15A4.69,4.69,0,0,0,15.5,13,4.51,4.51,0,0,0,19,11.29V5.67A5,5,0,0,1,15.5,7a5.7,5.7,0,0,1-4.35-2.15A4.69,4.69,0,0,0,7.5,3,4.69,4.69,0,0,0,3.85,4.85a0.5,0.5,0,1,1-.71-0.71A5.7,5.7,0,0,1,7.5,2a5.7,5.7,0,0,1,4.35,2.15A4.69,4.69,0,0,0,15.5,6a4.69,4.69,0,0,0,3.65-1.85A0.5,0.5,0,0,1,20,4.5v7a0.5,0.5,0,0,1-.15.35A5.7,5.7,0,0,1,15.5,14h0Z" transform="translate(0 0)"/>
    <path class="17eb8f30-e9d3-4d9b-aa10-ee61c6411ef4" d="M1.5,3A1.5,1.5,0,1,1,3,1.5,1.5,1.5,0,0,1,1.5,3Zm0-2a0.5,0.5,0,1,0,.5.5A0.5,0.5,0,0,0,1.5,1Z" transform="translate(0 0)"/>
  </g>
</svg>
