<svg id="e073cd7c-2372-4ef1-8a78-4044b51d1ef5" data-name="Layer 1" xmlns="http://www.w3.org/2000/svg" viewBox="0 0 19 19"><defs><style>.\35 671d9a4-1e9b-4b95-a99b-8a110c1f62ba{opacity:0.7;}.ba752df2-e4d3-4d82-98f0-91917761174d{fill:#44af69;}</style></defs><title>happy-green</title><g id="26a344c7-c876-444b-804c-857e981094e1" data-name="Icons" class="5671d9a4-1e9b-4b95-a99b-8a110c1f62ba"><path class="ba752df2-e4d3-4d82-98f0-91917761174d" d="M269.5,1965a9.5,9.5,0,1,1,6.72-2.78A9.44,9.44,0,0,1,269.5,1965Zm0-18a8.5,8.5,0,1,0,8.5,8.5A8.51,8.51,0,0,0,269.5,1947Z" transform="translate(-260 -1946)"/><path class="ba752df2-e4d3-4d82-98f0-91917761174d" d="M266.5,1953a1.5,1.5,0,1,1,1.5-1.5A1.5,1.5,0,0,1,266.5,1953Zm0-2a0.5,0.5,0,1,0,.5.5A0.5,0.5,0,0,0,266.5,1951Z" transform="translate(-260 -1946)"/><path class="ba752df2-e4d3-4d82-98f0-91917761174d" d="M272.5,1953a1.5,1.5,0,1,1,1.5-1.5A1.5,1.5,0,0,1,272.5,1953Zm0-2a0.5,0.5,0,1,0,.5.5A0.5,0.5,0,0,0,272.5,1951Z" transform="translate(-260 -1946)"/><path class="ba752df2-e4d3-4d82-98f0-91917761174d" d="M269.5,1962a6.51,6.51,0,0,1-6.5-6.5,0.5,0.5,0,0,1,1,0,5.5,5.5,0,1,0,11,0,0.5,0.5,0,0,1,1,0A6.51,6.51,0,0,1,269.5,1962Z" transform="translate(-260 -1946)"/></g></svg>