<svg id="48e53d66-9899-4585-95b9-eff184606dbb" data-name="Warstwa 1" xmlns="http://www.w3.org/2000/svg" xmlns:xlink="http://www.w3.org/1999/xlink" viewBox="0 0 20 20">
  <defs>
    <style>
      .a5344f19-99cf-465d-8c6e-e309f7d561da {
        filter: url(#e97dc3fc-e21d-4c61-925b-ae5d2c232707);
      }

      .\35 cf3c7af-9a69-407d-8edc-2b9d5cd0aa24 {
        mask: url(#86dc17a0-53c9-47fd-81c0-31ca3cc2fa34);
      }

      .bb041fdb-cb8c-479b-9e96-b1576b3821a7 {
        fill: url(#5eda905f-0f50-4f85-b47a-0713f0a492fe);
      }
    </style>
    <filter id="e97dc3fc-e21d-4c61-925b-ae5d2c232707" filterUnits="userSpaceOnUse" color-interpolation-filters="sRGB">
      <feColorMatrix values="-1 0 0 0 1 0 -1 0 0 1 0 0 -1 0 1 0 0 0 1 0"/>
    </filter>
    <mask id="86dc17a0-53c9-47fd-81c0-31ca3cc2fa34" x="0" y="0" width="20" height="20" maskUnits="userSpaceOnUse">
      <g class="a5344f19-99cf-465d-8c6e-e309f7d561da">
        <path d="M11,5a2,2,0,1,1,2-2A2,2,0,0,1,11,5Zm0-3a1,1,0,1,0,1,1A1,1,0,0,0,11,2Z"/>
        <path d="M10.5,20a0.5,0.5,0,0,1-.5-0.45L9.51,14.64,8.05,11.72a0.5,0.5,0,0,1,0-.32L8.94,6.73,7.72,5.92a0.5,0.5,0,0,1-.15-0.15l-2.5-4a0.5,0.5,0,1,1,.85-0.53L8.37,5.14,9.78,6.08A0.5,0.5,0,0,1,10,6.6L9,11.43l1.42,2.85a0.5,0.5,0,0,1,.05.17l0.5,5a0.5,0.5,0,0,1-.45.55h0Z"/>
        <path d="M5.5,20A0.5,0.5,0,0,1,5,19.32l1.49-4,0.49-2a0.5,0.5,0,1,1,1,.24l-0.5,2,0,0.05-1.5,4A0.5,0.5,0,0,1,5.5,20h0Z"/>
        <path d="M13.5,13A0.5,0.5,0,0,1,13,12.7L11.56,9.24l-1-1.46a0.5,0.5,0,0,1,.83-0.55l1,1.5,0,0.08L14,12.3a0.5,0.5,0,0,1-.26.66,0.49,0.49,0,0,1-.2,0h0Z"/>
      </g>
    </mask>
    <linearGradient id="5eda905f-0f50-4f85-b47a-0713f0a492fe" data-name="Gradient bez nazwy 7" x1="1.57" y1="1.95" x2="19.42" y2="19" gradientUnits="userSpaceOnUse">
      <stop offset="0" stop-color="#0495ff"/>
      <stop offset="1" stop-color="#0079bf"/>
    </linearGradient>
  </defs>
  <title>man-hand-gradient</title>
  <g class="5cf3c7af-9a69-407d-8edc-2b9d5cd0aa24">
    <rect class="bb041fdb-cb8c-479b-9e96-b1576b3821a7" width="20" height="20"/>
  </g>
</svg>
