<svg id="10d19b95-f55c-4d0b-8357-9e23b308ebe4" data-name="Layer 1" xmlns="http://www.w3.org/2000/svg" viewBox="0 0 13 17"><defs><style>.f5b3c855-281f-4530-9735-e7a07a3b44f3{opacity:0.7;}.bd4a754e-0105-42a0-bf52-3d8f1c17f9bf{fill:#bbb;}</style></defs><title>password-form</title><g id="643eb419-15bc-4e1b-a3d4-11eaa54407ce" data-name="Icons" class="f5b3c855-281f-4530-9735-e7a07a3b44f3"><path class="bd4a754e-0105-42a0-bf52-3d8f1c17f9bf" d="M394.5,393H394v-1.5a4.5,4.5,0,0,0-9,0V393h-0.5a1.5,1.5,0,0,0-1.5,1.5v8a1.5,1.5,0,0,0,1.5,1.5h10a1.5,1.5,0,0,0,1.5-1.5v-8A1.5,1.5,0,0,0,394.5,393Zm-8.5-1.5a3.5,3.5,0,0,1,7,0V393h-7v-1.5Zm9,11a0.5,0.5,0,0,1-.5.5h-10a0.5,0.5,0,0,1-.5-0.5v-8a0.5,0.5,0,0,1,.5-0.5h10a0.5,0.5,0,0,1,.5.5v8Z" transform="translate(-383 -387)"/></g></svg>