<svg id="d4df4587-1e7a-4871-846c-843fbfcb2032" data-name="Warstwa 1" xmlns="http://www.w3.org/2000/svg" viewBox="0 0 19.99 20">
  <defs>
    <style>
      .\31 8d7acbf-1a63-428d-b5c5-a46d8fc02661 {
        fill: #434343;
        opacity: 0.7;
      }
    </style>
  </defs>
  <title>phone</title>
  <path class="18d7acbf-1a63-428d-b5c5-a46d8fc02661" d="M16,20a12.41,12.41,0,0,1-5.6-1.49,20.58,20.58,0,0,1-5.12-3.78A20.62,20.62,0,0,1,1.5,9.6,12.44,12.44,0,0,1,0,4,4.29,4.29,0,0,1,1.54,1.32,4.56,4.56,0,0,1,4,0,2.28,2.28,0,0,1,5.39.77,13.22,13.22,0,0,1,6.77,2.32C7.06,2.69,8.5,4.59,8.5,5.5c0,0.75-.85,1.27-1.74,1.82A10,10,0,0,0,5.8,8a1,1,0,0,0-.33.36,13.23,13.23,0,0,0,6.22,6.22A1,1,0,0,0,12,14.2a10.07,10.07,0,0,0,.64-1c0.55-.89,1.07-1.74,1.82-1.74,0.91,0,2.81,1.44,3.18,1.73a13.22,13.22,0,0,1,1.54,1.38A2.28,2.28,0,0,1,20,16a4.59,4.59,0,0,1-1.32,2.46A4.29,4.29,0,0,1,16,20h0ZM4,1A3.76,3.76,0,0,0,2.22,2.05,3.23,3.23,0,0,0,1,4c0,6.73,8.26,15,15,15a3.23,3.23,0,0,0,1.94-1.21A3.78,3.78,0,0,0,19,16a6.2,6.2,0,0,0-2-2,7.82,7.82,0,0,0-2.5-1.47,0.94,0.94,0,0,0-.36.34,10.79,10.79,0,0,0-.61.93c-0.56.91-1.09,1.77-1.86,1.77a1,1,0,0,1-.36-0.07A14.18,14.18,0,0,1,4.54,8.68,1.19,1.19,0,0,1,5,7.31a8.66,8.66,0,0,1,1.23-.85,10.19,10.19,0,0,0,.93-0.61A0.94,0.94,0,0,0,7.5,5.49,7.84,7.84,0,0,0,6,3,6.21,6.21,0,0,0,4,1H4Z" transform="translate(-0.01 0)"/>
  <path class="18d7acbf-1a63-428d-b5c5-a46d8fc02661" d="M19.5,9A0.5,0.5,0,0,1,19,8.5,7.51,7.51,0,0,0,11.5,1a0.5,0.5,0,0,1,0-1A8.5,8.5,0,0,1,20,8.5,0.5,0.5,0,0,1,19.5,9Z" transform="translate(-0.01 0)"/>
  <path class="18d7acbf-1a63-428d-b5c5-a46d8fc02661" d="M16.5,9A0.5,0.5,0,0,1,16,8.5,4.51,4.51,0,0,0,11.5,4a0.5,0.5,0,0,1,0-1A5.51,5.51,0,0,1,17,8.5,0.5,0.5,0,0,1,16.5,9Z" transform="translate(-0.01 0)"/>
  <path class="18d7acbf-1a63-428d-b5c5-a46d8fc02661" d="M13.5,9A0.5,0.5,0,0,1,13,8.5,1.5,1.5,0,0,0,11.5,7a0.5,0.5,0,0,1,0-1A2.5,2.5,0,0,1,14,8.5,0.5,0.5,0,0,1,13.5,9Z" transform="translate(-0.01 0)"/>
</svg>
