<svg id="613d4267-3739-470e-b82a-726b081851cc" data-name="Layer 1" xmlns="http://www.w3.org/2000/svg" viewBox="0 0 19 19"><defs><style>.f728fb5a-3ce3-4580-8d7c-3f50a8e05ae0{opacity:0.7;}.\35 4837866-f692-4996-9bcc-279a32ecd25c{fill:#d70a0a;}</style></defs><title>sad-red</title><g id="41dcd82d-e91c-48ec-b7b7-4efda8e03379" data-name="Icons" class="f728fb5a-3ce3-4580-8d7c-3f50a8e05ae0"><path class="54837866-f692-4996-9bcc-279a32ecd25c" d="M389.5,1965a9.5,9.5,0,1,1,6.72-2.78A9.44,9.44,0,0,1,389.5,1965Zm0-18a8.5,8.5,0,1,0,8.5,8.5A8.51,8.51,0,0,0,389.5,1947Z" transform="translate(-380 -1946)"/><path class="54837866-f692-4996-9bcc-279a32ecd25c" d="M386.5,1953a1.5,1.5,0,1,1,1.5-1.5A1.5,1.5,0,0,1,386.5,1953Zm0-2a0.5,0.5,0,1,0,.5.5A0.5,0.5,0,0,0,386.5,1951Z" transform="translate(-380 -1946)"/><path class="54837866-f692-4996-9bcc-279a32ecd25c" d="M392.5,1953a1.5,1.5,0,1,1,1.5-1.5A1.5,1.5,0,0,1,392.5,1953Zm0-2a0.5,0.5,0,1,0,.5.5A0.5,0.5,0,0,0,392.5,1951Z" transform="translate(-380 -1946)"/><path class="54837866-f692-4996-9bcc-279a32ecd25c" d="M385.5,1960a0.5,0.5,0,0,1-.4-0.8,5.55,5.55,0,0,1,1.9-1.6,5.52,5.52,0,0,1,5,0,5.55,5.55,0,0,1,1.9,1.6,0.5,0.5,0,1,1-.8.6,4.5,4.5,0,0,0-7.2,0,0.5,0.5,0,0,1-.4.2h0Z" transform="translate(-380 -1946)"/></g></svg>