<svg id="368d2d56-7ac0-4d0f-9599-4c3a61ecf6db" data-name="Layer 1" xmlns="http://www.w3.org/2000/svg" viewBox="0 0 19 19"><defs><style>.ae86c2d7-4b53-4146-8705-f4f85f25a5cd{opacity:0.7;}.a1b60593-8257-4b89-b64f-9a71970d8bb3{fill:#434343;}</style></defs><title>sad</title><g id="e966fa5a-781b-4e7c-8d16-092c6414b178" data-name="Icons" class="ae86c2d7-4b53-4146-8705-f4f85f25a5cd"><path class="a1b60593-8257-4b89-b64f-9a71970d8bb3" d="M389.5,1965a9.5,9.5,0,1,1,6.72-2.78A9.44,9.44,0,0,1,389.5,1965Zm0-18a8.5,8.5,0,1,0,8.5,8.5A8.51,8.51,0,0,0,389.5,1947Z" transform="translate(-380 -1946)"/><path class="a1b60593-8257-4b89-b64f-9a71970d8bb3" d="M386.5,1953a1.5,1.5,0,1,1,1.5-1.5A1.5,1.5,0,0,1,386.5,1953Zm0-2a0.5,0.5,0,1,0,.5.5A0.5,0.5,0,0,0,386.5,1951Z" transform="translate(-380 -1946)"/><path class="a1b60593-8257-4b89-b64f-9a71970d8bb3" d="M392.5,1953a1.5,1.5,0,1,1,1.5-1.5A1.5,1.5,0,0,1,392.5,1953Zm0-2a0.5,0.5,0,1,0,.5.5A0.5,0.5,0,0,0,392.5,1951Z" transform="translate(-380 -1946)"/><path class="a1b60593-8257-4b89-b64f-9a71970d8bb3" d="M385.5,1960a0.5,0.5,0,0,1-.4-0.8,5.55,5.55,0,0,1,1.9-1.6,5.52,5.52,0,0,1,5,0,5.55,5.55,0,0,1,1.9,1.6,0.5,0.5,0,1,1-.8.6,4.5,4.5,0,0,0-7.2,0,0.5,0.5,0,0,1-.4.2h0Z" transform="translate(-380 -1946)"/></g></svg>