<svg id="115645f2-44cd-4e91-82f6-0bbc0c36cd6f" data-name="Warstwa 1" xmlns="http://www.w3.org/2000/svg" xmlns:xlink="http://www.w3.org/1999/xlink" viewBox="0 0 20.62 19.28"><defs><style>.a0ee5beb-7f54-4886-9773-7004e8af2d70{fill:#fff;}.\34 5fd8457-796e-44d3-937d-c506cfc23bc4{mask:url(#9efd0275-c8be-48a8-bc98-c630555f29ad);}.\34 2fd5db5-fd38-425b-a92d-eda74491a78f{fill:url(#3e2073e3-baec-45a4-ae98-51a8178aed98);}</style><mask id="9efd0275-c8be-48a8-bc98-c630555f29ad" x="0" y="0" width="20.62" height="19.28" maskUnits="userSpaceOnUse"><g transform="translate(0 -1.02)"><path class="a0ee5beb-7f54-4886-9773-7004e8af2d70" d="M15.5,19a0.5,0.5,0,0,1-.24-0.06l-3-1.64a0.5,0.5,0,0,1,.48-0.88l2.1,1.15-0.16-1a0.5,0.5,0,0,1,1-.16l0.33,2a0.5,0.5,0,0,1-.49.58h0Z"/><path class="a0ee5beb-7f54-4886-9773-7004e8af2d70" d="M14.83,15a0.5,0.5,0,0,1-.49-0.42l-0.33-2a0.5,0.5,0,0,1,.14-0.44l1-1a0.5,0.5,0,0,1,.71.71L15,12.67l0.29,1.75a0.5,0.5,0,0,1-.41.57H14.83Z"/><path class="a0ee5beb-7f54-4886-9773-7004e8af2d70" d="M17.5,10a0.5,0.5,0,0,1-.35-0.85l0.31-.31-2-.34a0.5,0.5,0,0,1,.16-1l3,0.5a0.5,0.5,0,0,1,.27.85l-1,1a0.5,0.5,0,0,1-.35.15h0Z"/><path class="a0ee5beb-7f54-4886-9773-7004e8af2d70" d="M13.5,8.17H13.42l-1-.17a0.5,0.5,0,0,1-.36-0.27l-1-2a0.5,0.5,0,1,1,.89-0.45L12.83,7l0.75,0.13a0.5,0.5,0,0,1-.08,1h0Z"/><path class="a0ee5beb-7f54-4886-9773-7004e8af2d70" d="M4.5,19A0.5,0.5,0,0,1,4,18.42l1-5.75L1.15,8.85A0.5,0.5,0,0,1,1.42,8L7.17,7,9.55,2.28A0.5,0.5,0,0,1,10,2h0a0.5,0.5,0,0,1,.45.28l0.5,1a0.5,0.5,0,0,1-.9.45L10,3.62,7.95,7.72A0.5,0.5,0,0,1,7.58,8l-5,.84,3.31,3.31a0.5,0.5,0,0,1,.14.44l-0.83,5,4.6-2.51a0.5,0.5,0,0,1,.48,0l0.5,0.27a0.5,0.5,0,1,1-.48.88L10,16.07,4.74,18.94A0.5,0.5,0,0,1,4.5,19h0Z"/></g></mask><linearGradient id="3e2073e3-baec-45a4-ae98-51a8178aed98" y1="9.64" x2="20.62" y2="9.64" gradientUnits="userSpaceOnUse"><stop offset="0" stop-color="#0495ff"/><stop offset="1" stop-color="#0079bf"/></linearGradient></defs><title>star-gradient</title><g class="45fd8457-796e-44d3-937d-c506cfc23bc4"><rect class="42fd5db5-fd38-425b-a92d-eda74491a78f" width="20.62" height="19.28"/></g></svg>