<svg id="1ab8a15d-1f82-40eb-b383-659342bb6311" data-name="Layer 1" xmlns="http://www.w3.org/2000/svg" viewBox="0 0 18 19.06"><defs><style>.\35 3cfa2a2-197f-4ce4-b1e2-3f21e81706dd{opacity:1;}.a92d3fc2-e7cb-42a6-bac6-9613c8447fbe{fill:#ffffff;}</style></defs><title>user-form</title><g id="da71695b-52ed-46d7-bf07-5bbcae38af00" data-name="Icons" class="53cfa2a2-197f-4ce4-b1e2-3f21e81706dd"><path class="a92d3fc2-e7cb-42a6-bac6-9613c8447fbe" d="M117.37,960.88a11.58,11.58,0,0,0-4.25-1.7,1.37,1.37,0,0,1-.74-1,1.54,1.54,0,0,1,.45-1.56,3.59,3.59,0,0,0,1-1.34,6.85,6.85,0,0,0,1.48-3.06,6.18,6.18,0,0,0-.17-2.83,4.42,4.42,0,0,0-2.26-2.66,6.58,6.58,0,0,0-3.3-.76,4.23,4.23,0,0,0-1.92.49,2.25,2.25,0,0,0-1,1.09,2.19,2.19,0,0,0-1.78,1.35,5.3,5.3,0,0,0-.05,3.35,7.57,7.57,0,0,0,1.52,3,2.87,2.87,0,0,0,.87,1.34,1.59,1.59,0,0,1,.41,1.57,1.36,1.36,0,0,1-.7,1,11.58,11.58,0,0,0-4.25,1.7A4.29,4.29,0,0,0,101,964.5a0.5,0.5,0,0,0,.5.5h17a0.5,0.5,0,0,0,.5-0.5,4.29,4.29,0,0,0-1.63-3.62h0Zm-11.61-11.6a1.22,1.22,0,0,1,1.24-.77,0.5,0.5,0,0,0,.49-0.4c0.16-.8,1.18-1.12,2.09-1.16,1.82-.07,4,0.85,4.56,2.7a5.06,5.06,0,0,1,0,2.85,6.36,6.36,0,0,0-.33-1.63A1.07,1.07,0,0,0,113,950c-2.57,0-4.64-.34-5.15-0.85a0.5,0.5,0,0,0-.85.35,3.9,3.9,0,0,1-.76,2.61,0.5,0.5,0,0,0-.19.4c0,0.13,0,.25,0,0.39a5.27,5.27,0,0,1-.3-3.62h0ZM102,964a3.1,3.1,0,0,1,1.22-2.34,10.2,10.2,0,0,1,3.87-1.52,2.23,2.23,0,0,0,1.44-1.74,2.52,2.52,0,0,0-.73-2.57c-0.75-.65-0.76-1.77-0.77-2.86,0-.09,0-0.18,0-0.27a4.52,4.52,0,0,0,.89-2.35,9.15,9.15,0,0,0,2.44.52c0.74,0.08,1.58.12,2.43,0.13a5.49,5.49,0,0,1,.37,2.47,3.41,3.41,0,0,1-1,2.37,2.51,2.51,0,0,0-.77,2.55,2.28,2.28,0,0,0,1.48,1.75,10.22,10.22,0,0,1,3.87,1.52A3.1,3.1,0,0,1,118,964H102Z" transform="translate(-101 -945.94)"/></g></svg>
