<svg id="2c50663a-6fff-4e70-93df-f1aeb5b83d28" data-name="Layer 1" xmlns="http://www.w3.org/2000/svg" viewBox="0 0 19 20"><defs><style>.\34 e6989ed-142f-4d23-bfbd-a42487fabcef{opacity:1;}.\35 d954355-c857-4e56-9961-9779fe7d7a9d{fill:#ffffff;}</style></defs><title>user</title><g id="b5967874-0f94-4da3-9623-bfe955eb14a5" data-name="Icons" class="4e6989ed-142f-4d23-bfbd-a42487fabcef"><path class="5d954355-c857-4e56-9961-9779fe7d7a9d" d="M269.5,916a5.5,5.5,0,1,1,5.5-5.5A5.51,5.51,0,0,1,269.5,916Zm0-10a4.5,4.5,0,1,0,4.5,4.5A4.51,4.51,0,0,0,269.5,906Z" transform="translate(-260 -905)"/><path class="5d954355-c857-4e56-9961-9779fe7d7a9d" d="M277.5,925h-16a1.5,1.5,0,0,1-1.5-1.5,6,6,0,0,1,1.22-3.3A7.12,7.12,0,0,1,264.1,918a15.38,15.38,0,0,1,10.81,0,7.12,7.12,0,0,1,2.87,2.22,6,6,0,0,1,1.22,3.3A1.5,1.5,0,0,1,277.5,925Zm-8-7c-3.49,0-6.06,1-7.44,2.76A5.08,5.08,0,0,0,261,923.5a0.5,0.5,0,0,0,.5.5h16a0.5,0.5,0,0,0,.5-0.5,5.07,5.07,0,0,0-1.06-2.74C275.56,919,273,918,269.5,918Z" transform="translate(-260 -905)"/></g></svg>
