<svg id="8799eb85-7aca-4538-a89f-77684d37c4c4" data-name="Layer 1" xmlns="http://www.w3.org/2000/svg" viewBox="0 0 20 20">
  <defs>
    <style>
      .f4bf39d0-a293-40c5-8f45-e715605411b6 {
        fill: #434343;
      }
    </style>
  </defs>
  <title>icon-3</title><path
    class="f4bf39d0-a293-40c5-8f45-e715605411b6"
    d="M479.88,1665.18a0.5,0.5,0,0,0-.38-0.18H479c-5,0-9,0-12,.7a8.73,8.73,0,0,0-3.72,1.74,6.68,6.68,0,0,0-2.09,3.43,8.47,8.47,0,0,0,.14,4.44,6,6,0,0,0,.91,1.8,13.72,13.72,0,0,0-2.27,7.4,0.5,0.5,0,1,0,1,0,14,14,0,0,1,4.35-9.65,16,16,0,0,1,3.82-2.85,7.7,7.7,0,0,1,3.33-1,0.5,0.5,0,0,0,0-1,8.53,8.53,0,0,0-3.79,1.12,17,17,0,0,0-4.06,3,17.89,17.89,0,0,0-1.77,2.07,4.93,4.93,0,0,1-.56-1.21,7.5,7.5,0,0,1-.13-3.87c1.43-5.12,6.86-5.14,16.72-5.13-1.17,6.29-3.37,10.36-6.52,12.1a8.1,8.1,0,0,1-6.93.28,5.37,5.37,0,0,1-.7-0.35,0.5,0.5,0,0,0-.51.86,6.2,6.2,0,0,0,.83.42,9.94,9.94,0,0,0,2.87.69q0.41,0,.81,0a8.4,8.4,0,0,0,4.12-1.05,11.13,11.13,0,0,0,4.14-4.3,27.78,27.78,0,0,0,3-9.09,0.5,0.5,0,0,0-.11-0.41h0Z"
    transform="translate(-460 -1665)"/></svg>
