<svg id="64e72284-59df-41b5-ade7-d23f682561c9" data-name="Layer 1" xmlns="http://www.w3.org/2000/svg" viewBox="0 0 129.08 238.45">
  <defs>
    <style>
      .\32 ea254f0-45b0-4b45-ac75-555514ad05eb {
        fill: #d81159;
      }
    </style>
  </defs>
  <title>icon-1</title><path
    class="2ea254f0-45b0-4b45-ac75-555514ad05eb"
    d="M910.65,654.8a0.06,0.06,0,0,1,0,0c0.33-11.19,9.69-25.34,16.52-27.1a4.85,4.85,0,0,0,3.27-6.65l-8.09-19.73a4.94,4.94,0,0,0-4.58-3.07H827.91a4.94,4.94,0,0,0-4.94,4.94v1a0.06,0.06,0,0,1-.06.06h-2.45a4.94,4.94,0,0,0-4.94,4.94v12.56a4.94,4.94,0,0,0,4.94,4.94H823a0.06,0.06,0,0,1,.06.06,4.83,4.83,0,0,0,5.25,4.32c0.2,0,13.79-1.13,26.67,2.21a0.07,0.07,0,0,1,0,.06c-0.14,10.25-3.37,22.63-16.25,29.77a5.06,5.06,0,0,0-2.43,6.16,4.88,4.88,0,0,0,6.89,2.53c16-8.75,20.53-23.54,21.39-34.82a0.06,0.06,0,0,1,.09-0.05,28.91,28.91,0,0,1,5.81,4c4.53,4,6.83,9.18,7,15.71C877.45,659,876,704,848,715.33a4.88,4.88,0,0,0-2.88,3.23c-10.5,38.29-11.21,108.34-11.24,111.3a4.88,4.88,0,0,0,4.88,4.92H937.1a4.88,4.88,0,0,0,4.87-4.6C942.28,824.91,948.86,701.79,910.65,654.8Zm-49-29.68L861.2,625c-10.65-3.48-22-4-28.42-3.89a0.06,0.06,0,0,1-.06-0.06V608h81.76a0.06,0.06,0,0,1,.06,0l5.07,12.37a0.06,0.06,0,0,1,0,.08c-9.07,5.58-17.08,18.93-18.52,31.14a0.06,0.06,0,0,1-.06.06H886.89a0.06,0.06,0,0,1-.06-0.05,29.82,29.82,0,0,0-9.84-18A43.78,43.78,0,0,0,861.61,625.12ZM932.37,825h-85.3a3.29,3.29,0,0,1-3.29-3.37c0.51-19.42,2.53-68.44,10.13-98.25a0.06,0.06,0,0,1,0,0c26.76-12.66,32-48.68,33.07-61.9a0.06,0.06,0,0,1,.06-0.06h16.35l0.05,0c31.46,39.46,29.77,140.61,29,163.54A0.06,0.06,0,0,1,932.37,825Z"
    transform="translate(-815.5 -598.21)"/><path
    class="2ea254f0-45b0-4b45-ac75-555514ad05eb"
    d="M912.65,656.67a0.06,0.06,0,0,1,0,0c0.33-11.19,9.69-25.34,16.52-27.1a4.85,4.85,0,0,0,3.27-6.65l-8.09-19.73a4.94,4.94,0,0,0-4.58-3.07H829.91A4.94,4.94,0,0,0,825,605v1a0.06,0.06,0,0,1-.06.06h-2.45A4.94,4.94,0,0,0,817.5,611V623.6a4.94,4.94,0,0,0,4.94,4.94H825a0.06,0.06,0,0,1,.06.06,4.83,4.83,0,0,0,5.25,4.32c0.2,0,13.79-1.13,26.67,2.21a0.07,0.07,0,0,1,0,.06c-0.14,10.25-3.37,22.63-16.25,29.77a5.06,5.06,0,0,0-2.43,6.16,4.88,4.88,0,0,0,6.89,2.53c16-8.75,20.53-23.54,21.39-34.82a0.06,0.06,0,0,1,.09-0.05,28.91,28.91,0,0,1,5.81,4c4.53,4,6.83,9.18,7,15.71-0.06,2.37-1.52,47.43-29.53,58.74a4.88,4.88,0,0,0-2.88,3.23c-10.5,38.29-11.21,108.34-11.24,111.3a4.88,4.88,0,0,0,4.88,4.92H939.1a4.88,4.88,0,0,0,4.87-4.6C944.28,826.79,950.86,703.66,912.65,656.67Zm-49-29.68-0.41-.14c-10.65-3.48-22-4-28.42-3.89a0.06,0.06,0,0,1-.06-0.06V609.84h81.76a0.06,0.06,0,0,1,.06,0l5.07,12.37a0.06,0.06,0,0,1,0,.08c-9.07,5.58-17.08,18.93-18.52,31.14a0.06,0.06,0,0,1-.06.06H888.89a0.06,0.06,0,0,1-.06-0.05,29.82,29.82,0,0,0-9.84-18A43.78,43.78,0,0,0,863.61,627ZM934.37,826.9h-85.3a3.29,3.29,0,0,1-3.29-3.37c0.51-19.42,2.53-68.44,10.13-98.25a0.06,0.06,0,0,1,0,0c26.76-12.66,32-48.68,33.07-61.9a0.06,0.06,0,0,1,.06-0.06h16.35l0.05,0c31.46,39.46,29.77,140.61,29,163.54A0.06,0.06,0,0,1,934.37,826.9Z"
    transform="translate(-815.5 -598.21)"/></svg>
