<svg id="f6287522-f50c-440d-8e86-e0212751109a" data-name="Capa 1" xmlns="http://www.w3.org/2000/svg" viewBox="0 0 97.39 97.39"><defs><style>.\38 ee4c04f-cc93-45da-88fd-578f50f8ad69{fill:#fff;}</style></defs><title>instagram-white</title><path class="8ee4c04f-cc93-45da-88fd-578f50f8ad69" d="M12.5,0H84.89a12.2,12.2,0,0,1,12.5,12.5V84.89a12.2,12.2,0,0,1-12.5,12.5H12.5A12.2,12.2,0,0,1,0,84.89V12.5A12.2,12.2,0,0,1,12.5,0h0ZM70.95,10.82a4.4,4.4,0,0,0-4.38,4.39V25.7a4.4,4.4,0,0,0,4.38,4.39H82a4.4,4.4,0,0,0,4.39-4.39V15.21A4.4,4.4,0,0,0,82,10.82h-11ZM86.39,41.19H77.82a28.49,28.49,0,0,1,1.25,8.35c0,16.2-13.56,29.33-30.28,29.33S18.52,65.74,18.52,49.54a28.44,28.44,0,0,1,1.25-8.35H10.82V82.33A3.88,3.88,0,0,0,14.7,86.2H82.52a3.88,3.88,0,0,0,3.87-3.87V41.19h0ZM48.79,29.53c-10.8,0-19.56,8.49-19.56,19s8.76,19,19.56,19,19.56-8.49,19.56-19S59.59,29.53,48.79,29.53Z"/></svg>