<svg id="36be6c56-181f-4429-bc8d-d525fcc093d6" data-name="Layer 1" xmlns="http://www.w3.org/2000/svg" viewBox="0 0 19.5 16.07">
  <defs>
    <style>
      .\36 0eeb1dc-6849-4c99-ab34-b056c5ca841e {
        fill: #434343;
      }
    </style>
  </defs>
  <title>icon-4</title><path
    class="60eeb1dc-6849-4c99-ab34-b056c5ca841e"
    d="M278.6,439.46l-4.54-4.12,0.53-.59A4,4,0,0,0,280,431a4,4,0,0,0-.45-1.84,0.5,0.5,0,0,0-.8-0.12l-2,2H276v-0.79l2-2a0.5,0.5,0,0,0-.12-0.8,4,4,0,0,0-5.58,5l-0.71.64-2.47-2.24a0.46,0.46,0,0,1-.15-0.33,0.45,0.45,0,0,1,.14-0.33l2.29-2.29A0.5,0.5,0,0,0,271,427s-1,0-2.09.06c-2,.12-2.53.35-2.76,0.58l-3.5,3.5a0.5,0.5,0,0,0-.15.35V432H262a0.51,0.51,0,0,0-.35.15l-1,1a0.5,0.5,0,0,0,0,.71l2,2a0.5,0.5,0,0,0,.71,0l1-1a0.5,0.5,0,0,0,.15-0.35V434H265a0.5,0.5,0,0,0,.35-0.15l0.79-.79a0.46,0.46,0,0,1,.32-0.14,0.45,0.45,0,0,1,.34.15l2.12,2.33-4.51,4.05a1.44,1.44,0,0,0-.06,2.1l1.09,1.09a1.44,1.44,0,0,0,1,.43h0a1.43,1.43,0,0,0,1-.48l3.93-4.38,4,4.38a1.46,1.46,0,0,0,1.08.48,1.44,1.44,0,0,0,1-.43l1.09-1.09a1.45,1.45,0,0,0,0-2.1h0Zm-5.29-7.14A3,3,0,0,1,273,431a3,3,0,0,1,3.71-2.92l-1.56,1.56a0.5,0.5,0,0,0-.15.35v1.5a0.5,0.5,0,0,0,.5.5H277a0.5,0.5,0,0,0,.35-0.15l1.56-1.56A3,3,0,0,1,276,434a3,3,0,0,1-1.32-.31,0.5,0.5,0,0,0-.59.12l-0.77.85-1-.94,0.9-.81a0.5,0.5,0,0,0,.12-0.59h0Zm-6.84-.39a1.44,1.44,0,0,0-1,.43l-0.65.65H264a0.5,0.5,0,0,0-.5.5v0.79l-0.5.5-1.29-1.29,0.5-.5H263a0.5,0.5,0,0,0,.5-0.5v-0.79l3.34-3.34a6.6,6.6,0,0,1,2.22-.31l0.71,0-1.42,1.42a1.45,1.45,0,0,0,.05,2.1l0.87,0.79-0.94.94-0.79-.87a1.46,1.46,0,0,0-1.08-.48h0Zm0.33,10a0.44,0.44,0,0,1-.32.15,0.45,0.45,0,0,1-.33-0.14l-1.09-1.09a0.45,0.45,0,0,1-.13-0.33,0.44,0.44,0,0,1,.15-0.32l4.51-4.06,1.21,1.33-4,4.45h0Zm11.14-1.07-1.09,1.09a0.46,0.46,0,0,1-.32.14,0.45,0.45,0,0,1-.33-0.15L269,434l1-1,7.91,7.19a0.45,0.45,0,0,1,.15.32,0.45,0.45,0,0,1-.14.33h0Z"
    transform="translate(-260.5 -427)"/></svg>
