<svg id="9265f3f3-4dbd-4eca-9ead-f1b7e7bc376a" data-name="Layer 1" xmlns="http://www.w3.org/2000/svg" viewBox="0 0 20 20"><defs><style>.\38 b1f5536-5008-4c10-a82d-ef5528d88d7f{fill:#fff;}</style></defs><title>icon-2</title><path class="8b1f5536-5008-4c10-a82d-ef5528d88d7f" d="M239.43,550.38l-2.49-4.27A2.41,2.41,0,0,0,235,545H225a2.41,2.41,0,0,0-1.94,1.11l-2.49,4.27a4.88,4.88,0,0,0-.57,2.12v3a1.5,1.5,0,0,0,1,1.41v6.59a1.5,1.5,0,0,0,1.5,1.5h15a1.5,1.5,0,0,0,1.5-1.5v-6.59a1.5,1.5,0,0,0,1-1.41v-3A4.88,4.88,0,0,0,239.43,550.38Zm-15.5-3.77A1.44,1.44,0,0,1,225,546h10a1.44,1.44,0,0,1,1.07.62l2.49,4.27,0.06,0.12H221.38l0.06-.12ZM237.5,564h-15a0.5,0.5,0,0,1-.5-0.5V557h16v6.5A0.5,0.5,0,0,1,237.5,564Zm1.5-8.5a0.5,0.5,0,0,1-.5.5h-17a0.5,0.5,0,0,1-.5-0.5v-3a0.5,0.5,0,0,1,.5-0.5h17a0.5,0.5,0,0,1,.5.5v3Z" transform="translate(-220 -545)"/><path class="8b1f5536-5008-4c10-a82d-ef5528d88d7f" d="M232.5,561h-5a1.5,1.5,0,1,1,0-3h5A1.5,1.5,0,0,1,232.5,561Zm-5-2a0.5,0.5,0,1,0,0,1h5a0.5,0.5,0,0,0,0-1h-5Z" transform="translate(-220 -545)"/></svg>