<svg id="59fc805a-81e5-48c6-aa6b-8318c8a8143a" data-name="Layer 1" xmlns="http://www.w3.org/2000/svg" viewBox="0 0 19 17"><defs><style>.\35 8642c05-a681-4697-b403-3f1a803a7251{fill:#fff;}</style></defs><title>icon-0</title><path class="58642c05-a681-4697-b403-3f1a803a7251" d="M549.5,484a0.5,0.5,0,0,1-.5-0.5c0-2.18-2-3.57-4.12-5a19.26,19.26,0,0,1-3.28-2.64A5.51,5.51,0,0,1,540,472a5,5,0,0,1,9.5-2.18A5,5,0,0,1,559,472a5.51,5.51,0,0,1-1.6,3.82,19.21,19.21,0,0,1-3.28,2.64c-2.12,1.47-4.12,2.86-4.12,5A0.5,0.5,0,0,1,549.5,484ZM545,468a4,4,0,0,0-4,4c0,2.55,2.16,4.05,4.45,5.64,1.61,1.11,3.25,2.26,4.05,3.81,0.8-1.56,2.45-2.7,4.05-3.81,2.29-1.59,4.45-3.08,4.45-5.64a4,4,0,0,0-8,0,0.5,0.5,0,0,1-1,0A4,4,0,0,0,545,468Z" transform="translate(-540 -467)"/></svg>