<svg id="Warstwa_1" data-name="Warstwa 1" xmlns="http://www.w3.org/2000/svg" viewBox="0 0 595.21 301.51"><defs><style>.cls-1{fill:#f6511d;}</style></defs><title>logo-orange</title><path id="Simple" class="cls-1" d="M211.4,569.45c13.39-68.69,193.27-158.7,290-156.69,23.59,0.49,38.49,5.76,38.29,22.79-0.17,13.94-11.25,27.91-27.77,27.77-208.05-1.68-303.79,123-300.5,106.13h0ZM44.08,418.19q13.84-8.66,27.75-10.05a66.91,66.91,0,0,1,26.68,2.54,73.62,73.62,0,0,1,23.64,12.41,87.29,87.29,0,0,1,18.62,19.82,88.73,88.73,0,0,1,10.68,20.81,76.09,76.09,0,0,1,1.71,46.52,70.6,70.6,0,0,1-11,22.62q-2.43,3.35-5.13,6.41t-5.83,5.95q-4.62,4.27-11.21,9.55a107.53,107.53,0,0,1-13.35,9.17,44.13,44.13,0,0,1-12.77,5.18q-6,1.27-9.45-2.45-2.2-2.38-.77-5.92A11.36,11.36,0,0,1,86,557.18q1.73-1.87,4.26-4.22,1.49-1.38,4.46-4t6-5.37q3-2.76,5.58-5t3.5-3.09a72.82,72.82,0,0,0,6.14-6.37,67.28,67.28,0,0,0,5-6.7q8.85-13.44,7.48-27.93t-14.74-28.93a69.85,69.85,0,0,0-16.3-13A48.89,48.89,0,0,0,78.68,446a30.63,30.63,0,0,0-17.86,3.11q-8.5,4.27-14.25,15.67-4.71,6.57-9.06,13.36a60.74,60.74,0,0,1-9.87,11.9q-5.66,5.23-9.45,6.67a11,11,0,0,1-6.49.75A8.78,8.78,0,0,1,7.28,495l-3.1-3.35A14.21,14.21,0,0,1,0,481.9a35.69,35.69,0,0,1,2-12.77,68.08,68.08,0,0,1,6.8-14.31A128.55,128.55,0,0,1,19,440.56a109.74,109.74,0,0,1,12.2-12.67,95.87,95.87,0,0,1,12.87-9.7h0Zm33.08,68.51q4.79,9.45,10.49,18.62,3.12,5,6.45,9.85l6.38,5.85a22,22,0,0,1,4.19,5,6.45,6.45,0,0,1,.81,4.91q-0.6,2.49-3.88,5.52Q93.41,544,84,541.65a47,47,0,0,1-12.59-6.74c-4.42-3.19-25.54-24.67-28.66-29.53s-4.68-7-5.1-12.37,1.76-10.2,6.53-14.61A18.6,18.6,0,0,1,49.79,475a36.5,36.5,0,0,1,7.41-2.15,28,28,0,0,1,7.7-.35,14.49,14.49,0,0,1,6.46,2,9.92,9.92,0,0,1,2.92,4.35q1.38,3.28,2.54,6.63l0.35,1.15h0ZM94.1,515.19h0c-4.69-5.06,11.5,15.57,6.81,9.41Q97.4,520,94.1,515.19ZM77.16,486.71L76.31,485l0.86,1.71v0ZM486,309.4l0.07-.25a62.87,62.87,0,0,1,9.45-19.63,55.06,55.06,0,0,1,15.2-14.42,33.78,33.78,0,0,1,18.6-5.58,24.72,24.72,0,0,1,6.19.85,15.72,15.72,0,0,1,5.36,2.47,30.09,30.09,0,0,1,5.89-.57q8.73,0,14,5A27.12,27.12,0,0,1,568.21,289a41,41,0,0,1,1.84,14.42,38.53,38.53,0,0,1-2.61,13,5.42,5.42,0,0,0,3.84,1.85,9.79,9.79,0,0,0,6.72-3q3.26-3,5.92-5.85a25.65,25.65,0,0,1,2.25-2.32,2.9,2.9,0,0,1,1.83-.9,9.06,9.06,0,0,1,5,2,6.42,6.42,0,0,1,2.11,3.77,12.47,12.47,0,0,1-1.36,7.6,27.14,27.14,0,0,1-5.32,7.27,28.5,28.5,0,0,1-7.74,5.44,19.45,19.45,0,0,1-19-.82,59.91,59.91,0,0,1-18.16,17.75,57,57,0,0,1-11.6,5.51,36.13,36.13,0,0,1-12,2.06,39,39,0,0,1-22.69-7.54,35.51,35.51,0,0,1-8.17-8.37,27,27,0,0,1-1.45-2.34,63.35,63.35,0,0,1-5.7,6.61,71.39,71.39,0,0,1-16.31,12.22,62.43,62.43,0,0,1-20.44,7,50,50,0,0,1-15,.28,40.84,40.84,0,0,1-13.1-4,38.32,38.32,0,0,1-10.55-7.94,34.33,34.33,0,0,1-5.35-7.49,79,79,0,0,1-4.31,11.93,74.74,74.74,0,0,1-8.84,14.8,29.76,29.76,0,0,1-11.55,9.56q-8.93,3.88-16.44,3.17a15.44,15.44,0,0,1-11.8-7,26.69,26.69,0,0,1-4-11.53q-1-7.1-1.45-13.76t-1-11.64q-0.51-5-2.21-5.35a2.1,2.1,0,0,0-2.52,1.32,27.74,27.74,0,0,1-1.61,2.91,21.7,21.7,0,0,0-3.64,11.21,53.56,53.56,0,0,0,.88,13.23,91.45,91.45,0,0,0,3.56,13.28q2.29,6.53,4,11.53,1.68,4.36-.27,6.76a17.32,17.32,0,0,1-6.6,4.42A41.87,41.87,0,0,1,320,403.48q-6.53.51-11.33-4.92a56.66,56.66,0,0,1-4.28-13.41q-1.43-7.35-2.3-13.94t-1.38-11.57q-0.51-5-1.69-6.68a17.63,17.63,0,0,0-3.95,4.15,20.18,20.18,0,0,0-3.15,9.56,54.21,54.21,0,0,0,.33,11.7,105.86,105.86,0,0,0,2.34,12.26q1.54,6.08,3,11.43l1.36,5.16a6.49,6.49,0,0,1-.24,4.53,7.29,7.29,0,0,1-1.77,2.54,14.21,14.21,0,0,1-2.84,2.12,25,25,0,0,1-5.45,2.48,20.86,20.86,0,0,1-7.23.93,15.45,15.45,0,0,1-8.08-2.8,26.38,26.38,0,0,1-5.54-4.6,53.17,53.17,0,0,1-1.56,7A74.32,74.32,0,0,1,260.17,434a61.66,61.66,0,0,1-8.5,12.17,28.57,28.57,0,0,1-4.1,3.68q-5.44,3.91-9.69,4.6a12,12,0,0,1-8-1.34,21.21,21.21,0,0,1-4.89-3.67,98,98,0,0,1-6,16.55q-3.61,7.67-8.72,11.34A22.57,22.57,0,0,1,195.77,482q-7.64-.38-14.05-6.52a72.15,72.15,0,0,1-7.22-8.31q-4.07-5.32-8-11.72a107.08,107.08,0,0,1-7.09-13.52A62.31,62.31,0,0,1,155,428a30.86,30.86,0,0,1,.07-12.42,15.52,15.52,0,0,1,6.41-9.35,41.41,41.41,0,0,1,7.81-4.61,18.39,18.39,0,0,1,6-1.55,6.55,6.55,0,0,1,4.25.7,11.49,11.49,0,0,1,3,2.1A23.65,23.65,0,0,1,187.7,410a74.53,74.53,0,0,1,2.93,8.43q1.45,5,4,12.54a155.33,155.33,0,0,0,8.51,19.33,1.74,1.74,0,0,0,2.55.42q4-2.84,3.58-9.46A56.5,56.5,0,0,0,206.35,427q-3.21-10.73-6.17-18.51a123.39,123.39,0,0,1-4.37-13.4,22.11,22.11,0,0,1-.63-9.57q0.79-4,5.07-7a45.38,45.38,0,0,1,5.49-3.32,49.56,49.56,0,0,1,6.58-2.84,17.14,17.14,0,0,1,6.5-1,7.17,7.17,0,0,1,5,2.06,29.32,29.32,0,0,1,7.09,10.57A112.06,112.06,0,0,1,235.81,398q2,7.33,3.75,14.1a64.11,64.11,0,0,0,3.57,10.72,2.74,2.74,0,0,0,3.09-.21q2.31-1.66,4.58-6.66t2.7-15.55q0-2.76.2-5.64t1.34-3.71a7.78,7.78,0,0,1,1.62-.73q-0.73-2-1.48-3.91a111.69,111.69,0,0,1-4.78-17.61,97.8,97.8,0,0,1-1.72-16.18,38.09,38.09,0,0,1,1.62-12.55q1.73-5.18,5.27-6.72a44.71,44.71,0,0,1,6.57-2.19,57.69,57.69,0,0,1,7.35-1.42,19.62,19.62,0,0,1,6.62.22,6.59,6.59,0,0,1,4.32,2.55,4.67,4.67,0,0,1,.63,2.71q0,1.68-.29,3.67t-0.36,4.25a15.68,15.68,0,0,0,.48,4.66,65.54,65.54,0,0,1,9.46-17.94q6-8,12.53-10.87,7.07-3.08,13-1.76a10.94,10.94,0,0,1,8.15,6.53,49.21,49.21,0,0,1,8.65-13.94q5.41-6.12,10.81-8.47a19,19,0,0,1,10.05-1.82,16.07,16.07,0,0,1,7.78,3.14,16.43,16.43,0,0,1,5.1,6.64,38.44,38.44,0,0,1,2.61,9,104,104,0,0,1,1.17,10.33q0.35,5.38.76,10.4a92.5,92.5,0,0,0,1.26,9.52A20.12,20.12,0,0,0,375,356a1.75,1.75,0,0,0,2.24.57,8.74,8.74,0,0,0,2.8-2.21,18.58,18.58,0,0,0,2.95-4.93,67,67,0,0,0,2.9-8.34q1.45-5.06,3-12.61a7.24,7.24,0,0,1,3-5.29,7.4,7.4,0,0,1,3.21-1.28,43.28,43.28,0,0,1,2.43-16.43q3.64-10.46,13.86-18.4t28-10.85q12.82-2.09,19.84,1.89a22.2,22.2,0,0,1,10,12.3,20.58,20.58,0,0,1,.37,13,32.84,32.84,0,0,1-6.84,12.29,50.52,50.52,0,0,1-12.42,10.22,66.32,66.32,0,0,1-16.74,7,19.2,19.2,0,0,0,6.51,7.14A15.31,15.31,0,0,0,450,342a37.54,37.54,0,0,0,20.7-11.13,82.58,82.58,0,0,0,14.61-20.75,3,3,0,0,1,.78-0.7h0ZM525.94,335a9.77,9.77,0,0,0,6.61-2.91,20.62,20.62,0,0,0,4.51-7.08,41.09,41.09,0,0,0,2.49-9.73,43.27,43.27,0,0,0,.16-10.65,21.46,21.46,0,0,1-4.32-7.33A44.32,44.32,0,0,1,532.9,289v-0.2c0-.13,0-0.2.1-0.2s0.1-.13.1-0.41a38.72,38.72,0,0,0-6.94,6.45,44.46,44.46,0,0,0-5.63,8.39,41,41,0,0,0-3.5,9.32,22.5,22.5,0,0,0-.36,9.23q0.4,1.83,1,4.17a22.33,22.33,0,0,0,1.6,4.37,11.14,11.14,0,0,0,2.62,3.47,5.94,5.94,0,0,0,4.05,1.44h0Zm-96.46-16.45a18.09,18.09,0,0,0,7.28-3.25,19.44,19.44,0,0,0,5-5.44,18.68,18.68,0,0,0,2.46-6.36,11.88,11.88,0,0,0-.23-5.82,12.2,12.2,0,0,0-1.61-2.93,2.82,2.82,0,0,0-2.92-.86,8.1,8.1,0,0,0-4.51,2.59,19.58,19.58,0,0,0-3.62,5.53,26.14,26.14,0,0,0-2,7.63,31.25,31.25,0,0,0,.22,8.91h0ZM75.73,483.87l-0.15-.29Zm1.53,3.25a0.8,0.8,0,0,1,0,.15c0,0.05,0,.07,0,0.07h0a0.5,0.5,0,0,1-.13-0.15,11.3,11.3,0,0,1-.6-1.13l-0.12-.25-0.07-.16c-0.2-.43-0.41-0.89-0.58-1.3l-0.09-.19L75.59,484l-0.06-.14-0.07-.16-0.14-.36a1.58,1.58,0,0,1-.08-0.28s0,0,.08.06l-0.08-.06a1.58,1.58,0,0,0,.08.28l0.14,0.36,0.07,0.16,0.12,0.29,0.09,0.19c0.18,0.41.38,0.87,0.58,1.3l0.07,0.16,0.12,0.25a11.3,11.3,0,0,0,.6,1.13,0.5,0.5,0,0,0,.13.15h0s0,0,0-.07a1.33,1.33,0,0,0,0-.25l0,0.11h0Z" transform="translate(0 -269.51)"/></svg>