<svg id="371e36cf-7d62-45bd-807c-2af0a19170a9" data-name="Layer 1" xmlns="http://www.w3.org/2000/svg" viewBox="0 0 20 18"><defs><style>.\33 b13e4b3-d8f6-4fd4-9ae6-10ffab2661e8{opacity:1;}.bf85f2cb-d094-49ee-9414-4e20e416cef5{fill:#fff;}</style></defs><title>calendar</title><g id="3673fecc-9d6e-4242-9727-149c7fe98ab7" data-name="Icons" class="3b13e4b3-d8f6-4fd4-9ae6-10ffab2661e8"><path class="bf85f2cb-d094-49ee-9414-4e20e416cef5" d="M78.5,1227H76v-0.5a0.5,0.5,0,0,0-1,0v0.5H65v-0.5a0.5,0.5,0,0,0-1,0v0.5H61.5a1.5,1.5,0,0,0-1.5,1.5v14a1.5,1.5,0,0,0,1.5,1.5h17a1.5,1.5,0,0,0,1.5-1.5v-14A1.5,1.5,0,0,0,78.5,1227Zm-17,1H64v1.5a0.5,0.5,0,0,0,1,0V1228H75v1.5a0.5,0.5,0,0,0,1,0V1228h2.5a0.5,0.5,0,0,1,.5.5v2.5H61v-2.5A0.5,0.5,0,0,1,61.5,1228Zm17,15h-17a0.5,0.5,0,0,1-.5-0.5V1232H79v10.5A0.5,0.5,0,0,1,78.5,1243Z" transform="translate(-60 -1226)"/><path class="bf85f2cb-d094-49ee-9414-4e20e416cef5" d="M67.5,1235h-1a0.5,0.5,0,1,1,0-1h1A0.5,0.5,0,0,1,67.5,1235Z" transform="translate(-60 -1226)"/><path class="bf85f2cb-d094-49ee-9414-4e20e416cef5" d="M70.5,1235h-1a0.5,0.5,0,1,1,0-1h1A0.5,0.5,0,0,1,70.5,1235Z" transform="translate(-60 -1226)"/><path class="bf85f2cb-d094-49ee-9414-4e20e416cef5" d="M73.5,1235h-1a0.5,0.5,0,1,1,0-1h1A0.5,0.5,0,0,1,73.5,1235Z" transform="translate(-60 -1226)"/><path class="bf85f2cb-d094-49ee-9414-4e20e416cef5" d="M76.5,1235h-1a0.5,0.5,0,1,1,0-1h1A0.5,0.5,0,0,1,76.5,1235Z" transform="translate(-60 -1226)"/><path class="bf85f2cb-d094-49ee-9414-4e20e416cef5" d="M64.5,1237h-1a0.5,0.5,0,1,1,0-1h1A0.5,0.5,0,0,1,64.5,1237Z" transform="translate(-60 -1226)"/><path class="bf85f2cb-d094-49ee-9414-4e20e416cef5" d="M67.5,1237h-1a0.5,0.5,0,1,1,0-1h1A0.5,0.5,0,0,1,67.5,1237Z" transform="translate(-60 -1226)"/><path class="bf85f2cb-d094-49ee-9414-4e20e416cef5" d="M70.5,1237h-1a0.5,0.5,0,1,1,0-1h1A0.5,0.5,0,0,1,70.5,1237Z" transform="translate(-60 -1226)"/><path class="bf85f2cb-d094-49ee-9414-4e20e416cef5" d="M73.5,1237h-1a0.5,0.5,0,1,1,0-1h1A0.5,0.5,0,0,1,73.5,1237Z" transform="translate(-60 -1226)"/><path class="bf85f2cb-d094-49ee-9414-4e20e416cef5" d="M76.5,1237h-1a0.5,0.5,0,1,1,0-1h1A0.5,0.5,0,0,1,76.5,1237Z" transform="translate(-60 -1226)"/><path class="bf85f2cb-d094-49ee-9414-4e20e416cef5" d="M64.5,1239h-1a0.5,0.5,0,1,1,0-1h1A0.5,0.5,0,0,1,64.5,1239Z" transform="translate(-60 -1226)"/><path class="bf85f2cb-d094-49ee-9414-4e20e416cef5" d="M67.5,1239h-1a0.5,0.5,0,1,1,0-1h1A0.5,0.5,0,0,1,67.5,1239Z" transform="translate(-60 -1226)"/><path class="bf85f2cb-d094-49ee-9414-4e20e416cef5" d="M70.5,1239h-1a0.5,0.5,0,1,1,0-1h1A0.5,0.5,0,0,1,70.5,1239Z" transform="translate(-60 -1226)"/><path class="bf85f2cb-d094-49ee-9414-4e20e416cef5" d="M73.5,1239h-1a0.5,0.5,0,1,1,0-1h1A0.5,0.5,0,0,1,73.5,1239Z" transform="translate(-60 -1226)"/><path class="bf85f2cb-d094-49ee-9414-4e20e416cef5" d="M76.5,1239h-1a0.5,0.5,0,1,1,0-1h1A0.5,0.5,0,0,1,76.5,1239Z" transform="translate(-60 -1226)"/><path class="bf85f2cb-d094-49ee-9414-4e20e416cef5" d="M64.5,1241h-1a0.5,0.5,0,1,1,0-1h1A0.5,0.5,0,0,1,64.5,1241Z" transform="translate(-60 -1226)"/><path class="bf85f2cb-d094-49ee-9414-4e20e416cef5" d="M67.5,1241h-1a0.5,0.5,0,1,1,0-1h1A0.5,0.5,0,0,1,67.5,1241Z" transform="translate(-60 -1226)"/><path class="bf85f2cb-d094-49ee-9414-4e20e416cef5" d="M70.5,1241h-1a0.5,0.5,0,1,1,0-1h1A0.5,0.5,0,0,1,70.5,1241Z" transform="translate(-60 -1226)"/><path class="bf85f2cb-d094-49ee-9414-4e20e416cef5" d="M73.5,1241h-1a0.5,0.5,0,1,1,0-1h1A0.5,0.5,0,0,1,73.5,1241Z" transform="translate(-60 -1226)"/><path class="bf85f2cb-d094-49ee-9414-4e20e416cef5" d="M76.5,1241h-1a0.5,0.5,0,1,1,0-1h1A0.5,0.5,0,0,1,76.5,1241Z" transform="translate(-60 -1226)"/></g></svg>
