<svg id="a74d1ff3-4cf1-43c9-8a8d-ae6c23a5d4fa" data-name="Layer 1" xmlns="http://www.w3.org/2000/svg" viewBox="0 0 18.49 15.09">
  <defs>
    <style>
      .\38 fdb2d4f-596d-4bcd-a87c-010aef8e4bd6 {
        opacity: 1;
      }
      .\31 b5ed5ea-17a5-4e1b-9ee3-2b0a4b39b63e {
        fill: #ccc;
      }
    </style>
  </defs>
  <title>coupon</title>
  <g id="13f19134-f26b-42aa-a9a9-c7494eaa78ed" data-name="Icons" class="8fdb2d4f-596d-4bcd-a87c-010aef8e4bd6"><path class="1b5ed5ea-17a5-4e1b-9ee3-2b0a4b39b63e" d="M275.5,1073a1.5,1.5,0,1,1,1.5-1.5A1.5,1.5,0,0,1,275.5,1073Zm0-2a0.5,0.5,0,1,0,.5.5A0.5,0.5,0,0,0,275.5,1071Z" transform="translate(-260.52 -1068)"/><path
    class="1b5ed5ea-17a5-4e1b-9ee3-2b0a4b39b63e"
    d="M277.5,1068H274a3.25,3.25,0,0,0-2.06.85l-7.59,7.59a1.5,1.5,0,0,0,0,2.12l2.6,2.6-1.1.63a0.5,0.5,0,0,1-.68-0.18l-3.6-6.23a0.5,0.5,0,0,1,.18-0.68l8-4.61a0.5,0.5,0,1,0-.5-0.87l-8,4.61a1.5,1.5,0,0,0-.55,2l3.6,6.23a1.5,1.5,0,0,0,2,.55l1.33-.77,0.75,0.75a1.5,1.5,0,0,0,2.12,0l7.59-7.59A3.24,3.24,0,0,0,279,1073v-3.5a1.5,1.5,0,0,0-1.5-1.5h0Zm0.5,5a2.32,2.32,0,0,1-.56,1.35l-7.59,7.59a0.51,0.51,0,0,1-.71,0l-4.09-4.09a0.49,0.49,0,0,1-.14-0.35,0.5,0.5,0,0,1,.14-0.35l7.59-7.59A2.32,2.32,0,0,1,274,1069h3.5a0.5,0.5,0,0,1,.5.5v3.5h0Z"
    transform="translate(-260.52 -1068)"/></g>
</svg>
