<svg id="8c610623-65da-4853-8143-03cbe31c8218" data-name="Layer 1" xmlns="http://www.w3.org/2000/svg" viewBox="0 0 19 5"><defs><style>.a065e350-eaa6-4faf-b658-7c136381c9b3{opacity:0.7;}.\38 42f8834-ff22-4bdb-aa59-314028d97346{fill:#434343;}</style></defs><title>dots</title><g id="4a2f7f06-685c-4db5-a9c2-0191921df02c" data-name="Icons" class="a065e350-eaa6-4faf-b658-7c136381c9b3"><path class="842f8834-ff22-4bdb-aa59-314028d97346" d="M422.5,2958a2.5,2.5,0,1,1,2.5-2.5A2.5,2.5,0,0,1,422.5,2958Zm0-4a1.5,1.5,0,1,0,1.5,1.5A1.5,1.5,0,0,0,422.5,2954Z" transform="translate(-420 -2953)"/><path class="842f8834-ff22-4bdb-aa59-314028d97346" d="M429.5,2958a2.5,2.5,0,1,1,2.5-2.5A2.5,2.5,0,0,1,429.5,2958Zm0-4a1.5,1.5,0,1,0,1.5,1.5A1.5,1.5,0,0,0,429.5,2954Z" transform="translate(-420 -2953)"/><path class="842f8834-ff22-4bdb-aa59-314028d97346" d="M436.5,2958a2.5,2.5,0,1,1,2.5-2.5A2.5,2.5,0,0,1,436.5,2958Zm0-4a1.5,1.5,0,1,0,1.5,1.5A1.5,1.5,0,0,0,436.5,2954Z" transform="translate(-420 -2953)"/></g></svg>