<svg id="a42d11e4-f96e-494b-b2c5-4c4d53f9115a" data-name="Layer 1" xmlns="http://www.w3.org/2000/svg" viewBox="0 0 20 19"><defs><style>.bcdd5156-274b-487c-8a4a-8a8e9077cca5{opacity:0.7;}.f07313b0-8e60-462a-9e75-bbba114ea2e1{fill:#434343;}</style></defs><title>faq</title><g id="1fc3d774-f565-4951-a41d-b392f73e0969" data-name="Icons" class="bcdd5156-274b-487c-8a4a-8a8e9077cca5"><path class="f07313b0-8e60-462a-9e75-bbba114ea2e1" d="M554.5,685h-13a1.5,1.5,0,0,1-1.5-1.5v-16a1.5,1.5,0,0,1,1.5-1.5h13a1.5,1.5,0,0,1,1.5,1.5v2a0.5,0.5,0,0,1-1,0v-2a0.5,0.5,0,0,0-.5-0.5h-13a0.5,0.5,0,0,0-.5.5v16a0.5,0.5,0,0,0,.5.5h13a0.5,0.5,0,0,0,.5-0.5v-4a0.5,0.5,0,0,1,1,0v4A1.5,1.5,0,0,1,554.5,685Z" transform="translate(-540 -666)"/><path class="f07313b0-8e60-462a-9e75-bbba114ea2e1" d="M550.5,670h-7a0.5,0.5,0,0,1,0-1h7A0.5,0.5,0,0,1,550.5,670Z" transform="translate(-540 -666)"/><path class="f07313b0-8e60-462a-9e75-bbba114ea2e1" d="M552.5,672h-9a0.5,0.5,0,0,1,0-1h9A0.5,0.5,0,0,1,552.5,672Z" transform="translate(-540 -666)"/><path class="f07313b0-8e60-462a-9e75-bbba114ea2e1" d="M551.5,674h-8a0.5,0.5,0,0,1,0-1h8A0.5,0.5,0,0,1,551.5,674Z" transform="translate(-540 -666)"/><path class="f07313b0-8e60-462a-9e75-bbba114ea2e1" d="M548.5,676h-5a0.5,0.5,0,0,1,0-1h5A0.5,0.5,0,0,1,548.5,676Z" transform="translate(-540 -666)"/><path class="f07313b0-8e60-462a-9e75-bbba114ea2e1" d="M548.5,682a0.5,0.5,0,0,1-.48-0.64l1-3.5a0.49,0.49,0,0,1,.13-0.22l7.5-7.5a0.5,0.5,0,0,1,.71,0l2.5,2.5a0.5,0.5,0,0,1,0,.7l-7.5,7.64a0.5,0.5,0,0,1-.24.13l-3.5.86H548.5Zm1.45-3.74-0.73,2.55,2.53-.62L558.8,673l-1.8-1.8-7.05,7.05h0Z" transform="translate(-540 -666)"/><path class="f07313b0-8e60-462a-9e75-bbba114ea2e1" d="M546.5,682h-3a0.5,0.5,0,0,1,0-1h3A0.5,0.5,0,0,1,546.5,682Z" transform="translate(-540 -666)"/></g></svg>