<svg id="7add4a09-a0ca-4608-abe0-44b8e14894df" data-name="Layer 1" xmlns="http://www.w3.org/2000/svg" viewBox="0 0 19 19"><defs><style>.c4a24a1a-30f8-47a4-93fe-b3bcb1cb116c{opacity:0.7;}.\35 6a736be-1918-498a-aa3e-8f17ec6f2e90{fill:#434343;}</style></defs><title>happy</title><g id="7614a0cf-b7cd-4289-8e12-95c7db0dbacc" data-name="Icons" class="c4a24a1a-30f8-47a4-93fe-b3bcb1cb116c"><path class="56a736be-1918-498a-aa3e-8f17ec6f2e90" d="M269.5,1965a9.5,9.5,0,1,1,6.72-2.78A9.44,9.44,0,0,1,269.5,1965Zm0-18a8.5,8.5,0,1,0,8.5,8.5A8.51,8.51,0,0,0,269.5,1947Z" transform="translate(-260 -1946)"/><path class="56a736be-1918-498a-aa3e-8f17ec6f2e90" d="M266.5,1953a1.5,1.5,0,1,1,1.5-1.5A1.5,1.5,0,0,1,266.5,1953Zm0-2a0.5,0.5,0,1,0,.5.5A0.5,0.5,0,0,0,266.5,1951Z" transform="translate(-260 -1946)"/><path class="56a736be-1918-498a-aa3e-8f17ec6f2e90" d="M272.5,1953a1.5,1.5,0,1,1,1.5-1.5A1.5,1.5,0,0,1,272.5,1953Zm0-2a0.5,0.5,0,1,0,.5.5A0.5,0.5,0,0,0,272.5,1951Z" transform="translate(-260 -1946)"/><path class="56a736be-1918-498a-aa3e-8f17ec6f2e90" d="M269.5,1962a6.51,6.51,0,0,1-6.5-6.5,0.5,0.5,0,0,1,1,0,5.5,5.5,0,1,0,11,0,0.5,0.5,0,0,1,1,0A6.51,6.51,0,0,1,269.5,1962Z" transform="translate(-260 -1946)"/></g></svg>