<svg id="7b38a3c8-fec3-4ba9-8a0a-b8b5036e10b6" data-name="Layer 1" xmlns="http://www.w3.org/2000/svg" viewBox="0 0 19 19"><defs><style>.\39 98e0e46-fae9-4140-905f-188329cceabc{opacity:0.7;}.\34 e2a3120-5211-420d-b3b2-ab58fb56df35{fill:#d70a0a;}</style></defs><title>invalid</title><g id="74365bdb-3187-4246-95a4-5aeeec9dd4d6" data-name="Icons" class="998e0e46-fae9-4140-905f-188329cceabc"><path class="4e2a3120-5211-420d-b3b2-ab58fb56df35" d="M390.71,2435.5l8.65-8.65a0.5,0.5,0,0,0-.71-0.71l-8.65,8.65-8.65-8.65a0.5,0.5,0,0,0-.71.71l8.65,8.65-8.65,8.65a0.5,0.5,0,0,0,.35.85,0.51,0.51,0,0,0,.35-0.15l8.65-8.65,8.65,8.65a0.5,0.5,0,0,0,.35.15,0.5,0.5,0,0,0,.35-0.85l-8.65-8.65h0Z" transform="translate(-380.5 -2426)"/></g></svg>