<svg id="e4106843-807f-46b6-a56b-3826191f097a" data-name="Warstwa 1" xmlns="http://www.w3.org/2000/svg" xmlns:xlink="http://www.w3.org/1999/xlink" viewBox="0 0 20 20">
  <defs>
    <style>
      .\32 b130f14-0b57-4c52-a43a-da62b5bb980b {
        mask: url(#f967b69e-d4e6-4b13-990b-973a9bc98d8b);
      }

      .c4497bf9-5c3a-44b4-9546-fdd4fcb13573 {
        fill: url(#9f2ab78a-07af-44d4-9e97-b32027153e3f);
      }

      .\31 3ab55d3-6b49-478a-aa1f-e3f4308be936 {
        filter: url(#366204fc-3641-4bb1-8cea-cbca511c7100);
      }
    </style>
    <filter id="366204fc-3641-4bb1-8cea-cbca511c7100" filterUnits="userSpaceOnUse" color-interpolation-filters="sRGB">
      <feColorMatrix values="-1 0 0 0 1 0 -1 0 0 1 0 0 -1 0 1 0 0 0 1 0"/>
    </filter>
    <mask id="f967b69e-d4e6-4b13-990b-973a9bc98d8b" x="0" y="0" width="20" height="20" maskUnits="userSpaceOnUse">
      <g class="13ab55d3-6b49-478a-aa1f-e3f4308be936">
        <g transform="translate(0)">
          <path d="M18.92,11.21A3.44,3.44,0,0,0,19.61,9a2.54,2.54,0,0,0-.33-1.35A1.46,1.46,0,0,0,18,7H15.38c1.42-2.59,1.78-4.54,1.07-5.81a2.39,2.39,0,0,0-2-1.19,0.5,0.5,0,0,0-.49.43,7.91,7.91,0,0,1-2.77,4.32A15.54,15.54,0,0,1,5.86,7.86,1.5,1.5,0,0,0,4.5,7h-3A1.5,1.5,0,0,0,0,8.5v9A1.5,1.5,0,0,0,1.5,19h3a1.5,1.5,0,0,0,1.4-1,8.27,8.27,0,0,1,3.41,1c0.9,0.48,1.74.93,4.5,0.93a3.47,3.47,0,0,0,1.91-.53,2.08,2.08,0,0,0,.93-1.34,2.11,2.11,0,0,0,1-1.09,4.37,4.37,0,0,0,.43-1.76,2.11,2.11,0,0,0,0-.27,2.31,2.31,0,0,0,.67-0.85,4.32,4.32,0,0,0,.43-1.83A2.12,2.12,0,0,0,19,11.27l0-.06h0ZM4.5,18h-3A0.5,0.5,0,0,1,1,17.5v-9A0.5,0.5,0,0,1,1.5,8h3a0.5,0.5,0,0,1,.5.5v9H5A0.5,0.5,0,0,1,4.5,18Zm13.84-7.73a0.66,0.66,0,0,1-.37.41,0.5,0.5,0,0,0,0,1,0.11,0.11,0,0,1,.12.08,1.23,1.23,0,0,1,.1.56,3.32,3.32,0,0,1-.33,1.38,0.87,0.87,0,0,1-.49.54,0.5,0.5,0,0,0-.27.92,3.21,3.21,0,0,1-.5,1.72,0.64,0.64,0,0,1-.42.33,0.5,0.5,0,0,0-.5.5c0,0.88-1,1.28-1.87,1.28-2.51,0-3.22-.38-4-0.81A9.23,9.23,0,0,0,6,17.05V8.87a16.55,16.55,0,0,0,5.81-3.37,9.38,9.38,0,0,0,3-4.43,1.35,1.35,0,0,1,.78.62c0.33,0.59.58,2.1-1.49,5.56a0.5,0.5,0,0,0,.43.76H18a0.46,0.46,0,0,1,.43.23,1.59,1.59,0,0,1,.18.81,2.89,2.89,0,0,1-.27,1.23h0Z"/>
        </g>
      </g>
    </mask>
    <linearGradient id="9f2ab78a-07af-44d4-9e97-b32027153e3f" data-name="Gradient bez nazwy 11" x1="2.52" y1="2.38" x2="16.82" y2="16.94" gradientUnits="userSpaceOnUse">
      <stop offset="0" stop-color="#0495ff"/>
      <stop offset="1" stop-color="#0079bf"/>
    </linearGradient>
  </defs>
  <title>like-gradient</title>
  <g class="2b130f14-0b57-4c52-a43a-da62b5bb980b">
    <rect class="c4497bf9-5c3a-44b4-9546-fdd4fcb13573" width="20" height="20"/>
  </g>
</svg>
