<svg id="35533e09-e809-4aaf-ba51-0857d8cc43db" data-name="Layer 1" xmlns="http://www.w3.org/2000/svg" viewBox="0 0 13 17"><defs><style>.\34 afa46ce-d247-41c4-b691-cbc2f51796b9{opacity:0.7;}.\36 258fee4-6f4a-47da-9d91-a38e66ce4716{fill:#434343;}</style></defs><title>password</title><g id="703d8053-f98d-49cf-9d6f-ddd5e7ffc382" data-name="Icons" class="4afa46ce-d247-41c4-b691-cbc2f51796b9"><path class="6258fee4-6f4a-47da-9d91-a38e66ce4716" d="M394.5,393H394v-1.5a4.5,4.5,0,0,0-9,0V393h-0.5a1.5,1.5,0,0,0-1.5,1.5v8a1.5,1.5,0,0,0,1.5,1.5h10a1.5,1.5,0,0,0,1.5-1.5v-8A1.5,1.5,0,0,0,394.5,393Zm-8.5-1.5a3.5,3.5,0,0,1,7,0V393h-7v-1.5Zm9,11a0.5,0.5,0,0,1-.5.5h-10a0.5,0.5,0,0,1-.5-0.5v-8a0.5,0.5,0,0,1,.5-0.5h10a0.5,0.5,0,0,1,.5.5v8Z" transform="translate(-383 -387)"/></g></svg>