<svg id="29417905-ef09-4a62-b045-ad9d069b046f" data-name="Layer 1" xmlns="http://www.w3.org/2000/svg" viewBox="0 0 19 19">
  <defs>
    <style>
      .\31 775416c-fd05-4201-8e34-7362433222b7 {
        opacity: 0.7;
        fill: #44af69;
      }
    </style>
  </defs>
  <title>thanks</title>
  <g id="50f16d9e-ae70-42aa-8e45-a67078924e28" data-name="Icons" class="1775416c-fd05-4201-8e34-7362433222b7">
    <g>
      <path d="M149.5,2565a9.5,9.5,0,1,1,6.72-2.78A9.44,9.44,0,0,1,149.5,2565Zm0-18a8.5,8.5,0,1,0,8.5,8.5A8.51,8.51,0,0,0,149.5,2547Z" transform="translate(-140 -2546)"/>
      <path d="M147.5,2559.5a0.5,0.5,0,0,1-.35-0.15l-3-3a0.5,0.5,0,0,1,.71-0.71l2.65,2.65,6.65-6.65a0.5,0.5,0,0,1,.71.71l-7,7a0.5,0.5,0,0,1-.35.15h0Z" transform="translate(-140 -2546)"/>
    </g>
  </g>
</svg>
