<svg id="e625ee69-7743-46de-9c55-46e3a1ff1762" data-name="Layer 1" xmlns="http://www.w3.org/2000/svg" viewBox="0 0 19 19"><defs><style>.ba94547f-d882-4b40-815c-144e4cd2d064{opacity:0.7;}.\37 b7aa8ee-2731-44d8-b692-89738428e1a2{fill:#434343;}</style></defs><title>time</title><g id="cb16d2b9-0dd9-40a6-8fed-5c705638906a" data-name="Icons" class="ba94547f-d882-4b40-815c-144e4cd2d064"><path class="7b7aa8ee-2731-44d8-b692-89738428e1a2" d="M75.13,2232.25a0.5,0.5,0,0,0-.68-0.18l-4.92,2.84-3.83-2.69a0.5,0.5,0,0,0-.57.82l4.1,2.87h0l0,0h0.38l0.05,0h0l0,0h0l5.2-3a0.5,0.5,0,0,0,.18-0.68h0Z" transform="translate(-60 -2226)"/><path class="7b7aa8ee-2731-44d8-b692-89738428e1a2" d="M76.32,2242.11a9.5,9.5,0,0,0,.24-13l0.69-.69,0.65,0.65a0.5,0.5,0,1,0,.71-0.71l-2-2a0.5,0.5,0,0,0-.71.71l0.65,0.65-0.69.69a9.5,9.5,0,0,0-12.71,0l-0.69-.69,0.65-.65a0.5,0.5,0,0,0-.71-0.71l-2,2a0.5,0.5,0,0,0,.71.71l0.65-.65,0.69,0.69a9.5,9.5,0,0,0,.24,13l-2,2a0.5,0.5,0,0,0,.71.71l2.06-2.06a9.5,9.5,0,0,0,12.17,0l2.06,2.06a0.5,0.5,0,1,0,.71-0.71l-2-2h0ZM70,2244v-0.49a0.5,0.5,0,0,0-1,0V2244a8.51,8.51,0,0,1-8-8H61.5a0.5,0.5,0,0,0,0-1H61a8.51,8.51,0,0,1,8-8v0.49a0.5,0.5,0,0,0,1,0V2227a8.51,8.51,0,0,1,8,8H77.5a0.5,0.5,0,1,0,0,1H78A8.51,8.51,0,0,1,70,2244Z" transform="translate(-60 -2226)"/></g></svg>