<svg id="e0766355-654b-4f06-acd1-0ac7f40aea2c" data-name="Layer 1" xmlns="http://www.w3.org/2000/svg" viewBox="0 0 19 19"><defs><style>.b637d234-d673-4304-a42b-5e7d43032f1f{opacity:0.7;}.\32 f7edfc8-8c0d-47dc-a2d7-8b585b98ed24{fill:#434343;}</style></defs><title>tooltip</title><g id="1f2a4d07-96fc-44ab-aa2f-930767c84777" data-name="Icons" class="b637d234-d673-4304-a42b-5e7d43032f1f"><path class="2f7edfc8-8c0d-47dc-a2d7-8b585b98ed24" d="M76.22,2548.78A9.5,9.5,0,1,0,79,2555.5,9.44,9.44,0,0,0,76.22,2548.78ZM69.5,2564a8.5,8.5,0,1,1,8.5-8.5A8.51,8.51,0,0,1,69.5,2564Z" transform="translate(-60 -2546)"/><path class="2f7edfc8-8c0d-47dc-a2d7-8b585b98ed24" d="M69.5,2560a0.5,0.5,0,0,1-.5-0.5v-2a0.5,0.5,0,0,1,.5-0.5,3.5,3.5,0,1,0-3.5-3.5,0.5,0.5,0,0,1-1,0,4.5,4.5,0,1,1,5,4.47v1.53A0.5,0.5,0,0,1,69.5,2560Z" transform="translate(-60 -2546)"/><path class="2f7edfc8-8c0d-47dc-a2d7-8b585b98ed24" d="M69.5,2563h0a0.5,0.5,0,0,1-.5-0.5v-1a0.5,0.5,0,0,1,.5-0.5h0a0.5,0.5,0,0,1,.5.5v1A0.5,0.5,0,0,1,69.5,2563Z" transform="translate(-60 -2546)"/></g></svg>