<svg id="3db616a7-e0f7-4465-812a-1409d5c7176b" data-name="Layer 1" xmlns="http://www.w3.org/2000/svg" viewBox="0 0 19 19"><defs><style>.\33 587063c-1fa3-412f-80ff-212335ccae68{opacity:0.7;}.bc4183f0-3770-4221-8788-a3347169179c{fill:#ccc;}</style></defs><title>tooltip-light</title><g id="ab068026-4f05-4396-b754-6f0b3d982ca7" data-name="Icons" class="3587063c-1fa3-412f-80ff-212335ccae68"><path class="bc4183f0-3770-4221-8788-a3347169179c" d="M76.22,2548.78A9.5,9.5,0,1,0,79,2555.5,9.44,9.44,0,0,0,76.22,2548.78ZM69.5,2564a8.5,8.5,0,1,1,8.5-8.5A8.51,8.51,0,0,1,69.5,2564Z" transform="translate(-60 -2546)"/><path class="bc4183f0-3770-4221-8788-a3347169179c" d="M69.5,2560a0.5,0.5,0,0,1-.5-0.5v-2a0.5,0.5,0,0,1,.5-0.5,3.5,3.5,0,1,0-3.5-3.5,0.5,0.5,0,0,1-1,0,4.5,4.5,0,1,1,5,4.47v1.53A0.5,0.5,0,0,1,69.5,2560Z" transform="translate(-60 -2546)"/><path class="bc4183f0-3770-4221-8788-a3347169179c" d="M69.5,2563h0a0.5,0.5,0,0,1-.5-0.5v-1a0.5,0.5,0,0,1,.5-0.5h0a0.5,0.5,0,0,1,.5.5v1A0.5,0.5,0,0,1,69.5,2563Z" transform="translate(-60 -2546)"/></g></svg>