<svg id="9eec4b8a-890b-4a9c-b840-fecb252b9e12" data-name="Layer 1" xmlns="http://www.w3.org/2000/svg" viewBox="0 0 512 429.68"><defs><style>.\39 5e92e73-3b15-47eb-8bab-bb2b3bdd0607{fill:#d81159;}.\38 88ce304-2d1a-43dc-b1ea-e711476c4683{fill:#ffbc42;}.\36 db5ae3e-b55c-4b04-af87-e69399ee4dd3{fill:#0079bf;}.def806e8-34f3-4a8c-baf8-069a6952f54d{fill:#0496ff;}</style></defs><title>2</title><path class="95e92e73-3b15-47eb-8bab-bb2b3bdd0607" d="M442.91,120.83l-9.7,5.23L73.6,320l-25-5-20.73-4.13A34.64,34.64,0,0,1,.68,270.19L22.83,159,37.48,85.4l3.25-16.35A34.65,34.65,0,0,1,81.48,41.84L404.74,106.2l11.14,2.22,8,1.6A34.36,34.36,0,0,1,442.91,120.83Z" transform="translate(0 -41.16)"/><polygon class="888ce304-2d1a-43dc-b1ea-e711476c4683" points="326.4 101.78 211.94 155.48 110.5 135.27 22.83 117.81 37.48 44.25 283.89 93.32 326.4 101.78"/><path class="95e92e73-3b15-47eb-8bab-bb2b3bdd0607" d="M433.21,126.06L73.6,320l-25-5-21-86.88A30.8,30.8,0,0,1,50.31,191l346.86-83.93a31.25,31.25,0,0,1,7.57-.87A30.87,30.87,0,0,1,433.21,126.06Z" transform="translate(0 -41.16)"/><polygon class="888ce304-2d1a-43dc-b1ea-e711476c4683" points="325.41 101.5 210.95 155.19 109.51 134.99 282.9 93.04 325.41 101.5"/><path class="6db5ae3e-b55c-4b04-af87-e69399ee4dd3" d="M141.57,470L488.43,386a30.81,30.81,0,0,0,22.7-37.19l-50-206.8a30.81,30.81,0,0,0-37.19-22.7L77,203.28a30.81,30.81,0,0,0-22.7,37.19l50,206.8A30.81,30.81,0,0,0,141.57,470Z" transform="translate(0 -41.16)"/><polyline class="888ce304-2d1a-43dc-b1ea-e711476c4683" points="483.55 193.74 76.81 292.16 59.17 219.25 465.91 120.83"/><rect class="def806e8-34f3-4a8c-baf8-069a6952f54d" x="351.49" y="292.58" width="123.3" height="17.55" transform="translate(-59.29 64.47) rotate(-13.6)"/><rect class="def806e8-34f3-4a8c-baf8-069a6952f54d" x="417.24" y="323.76" width="64.78" height="17.55" transform="translate(-65.6 73.93) rotate(-13.6)"/></svg>