<svg id="91e6cf3a-791d-4194-92ce-17784ade6e66" data-name="Capa 1" xmlns="http://www.w3.org/2000/svg" viewBox="0 0 50 58"><defs><style>.\34 37aab0c-97c7-4c11-ad2b-c0ce722a0d92{fill:#434343;}.a8d958ef-0420-43b4-bebc-189337e8bab2{fill:#e7eced;}.a1b5a026-a8cc-441d-9008-e4d4a156cee4{fill:#262b35;}.\30 411d28a-d4cb-4138-8a2c-48308cef50c0{fill:#0079bf;}.\36 d883b59-be2a-46ed-a29a-eb07908afbbe{fill:#0496ff;}</style></defs><title>3</title><path class="437aab0c-97c7-4c11-ad2b-c0ce722a0d92" d="M32.6,58H7.41A3.41,3.41,0,0,1,4,54.6V3.4A3.41,3.41,0,0,1,7.41,0H32.59A3.41,3.41,0,0,1,36,3.4V54.59A3.41,3.41,0,0,1,32.6,58Z" transform="translate(-4)"/><rect class="a8d958ef-0420-43b4-bebc-189337e8bab2" y="6" width="32" height="40"/><circle class="a1b5a026-a8cc-441d-9008-e4d4a156cee4" cx="16" cy="52" r="3"/><path class="a1b5a026-a8cc-441d-9008-e4d4a156cee4" d="M20,4H16a1,1,0,0,1,0-2h4A1,1,0,0,1,20,4Z" transform="translate(-4)"/><path class="a1b5a026-a8cc-441d-9008-e4d4a156cee4" d="M24,4H23a1,1,0,0,1,0-2h1A1,1,0,0,1,24,4Z" transform="translate(-4)"/><polygon class="0411d28a-d4cb-4138-8a2c-48308cef50c0" points="50 12 14 12 14 31 18 31 18 37 26 31 50 31 50 12"/><path class="6d883b59-be2a-46ed-a29a-eb07908afbbe" d="M24,20H34a1,1,0,0,0,0-2H24A1,1,0,0,0,24,20Z" transform="translate(-4)"/><path class="6d883b59-be2a-46ed-a29a-eb07908afbbe" d="M48,23H24a1,1,0,0,0,0,2H48A1,1,0,0,0,48,23Z" transform="translate(-4)"/></svg>