<svg id="4c96d43a-53e0-43c0-87c0-e900c3cd7451" data-name="Capa 1" xmlns="http://www.w3.org/2000/svg" viewBox="0 0 76.54 90.68"><defs><style>.a2cdbe15-872a-40a4-a8d1-bfb37fb0c9ce{fill:#fff;}</style></defs><title>youtube-white</title><path class="a2cdbe15-872a-40a4-a8d1-bfb37fb0c9ce" d="M82.29,45.91A9.67,9.67,0,0,0,74,38.39c-9.49-1.06-19.1-1.06-28.66-1.06s-19.17,0-28.67,1.06a9.67,9.67,0,0,0-8.27,7.52C7.08,51.7,7.07,58,7.07,64s0,12.3,1.33,18.09a9.67,9.67,0,0,0,8.27,7.52c9.49,1.06,19.1,1.07,28.66,1.06s19.17,0,28.66-1.06a9.67,9.67,0,0,0,8.27-7.52C83.6,76.3,83.61,70,83.61,64S83.62,51.7,82.29,45.91ZM28.9,50.4H23.36V79.84H18.21V50.4H12.78V45.58H28.9V50.4Zm14,29.44H38.25V77.05c-1.84,2.11-3.58,3.14-5.29,3.14a2.84,2.84,0,0,1-3-1.9,13,13,0,0,1-.41-3.8V54.31H34.2v18.8a14.4,14.4,0,0,0,0,1.8A1.06,1.06,0,0,0,35.32,76c0.93,0,1.9-.71,2.92-2.17V54.31h4.63V79.84h0Zm17.57-7.66A20.39,20.39,0,0,1,60,77.32a3.66,3.66,0,0,1-3.69,2.87c-1.65,0-3.23-.91-4.78-2.82v2.47H46.88V45.58h4.63V56.77C53,54.93,54.59,54,56.29,54A3.66,3.66,0,0,1,60,56.88,19.6,19.6,0,0,1,60.45,62V72.18Zm17.46-4.26H68.66v4.53c0,2.36.77,3.54,2.36,3.54a2,2,0,0,0,2.07-1.86,29.1,29.1,0,0,0,.1-3.13h4.72v0.68c0,1.49-.06,2.52-0.1,3a6.59,6.59,0,0,1-1.08,2.77,6.4,6.4,0,0,1-5.6,2.77,6.62,6.62,0,0,1-5.6-2.61c-1-1.28-1.49-3.29-1.49-6V62.63c0-2.73.45-4.72,1.43-6A6.58,6.58,0,0,1,71,54a6.42,6.42,0,0,1,5.46,2.62c1,1.29,1.43,3.29,1.43,6v5.28h0Z" transform="translate(-7.07)"/><path class="a2cdbe15-872a-40a4-a8d1-bfb37fb0c9ce" d="M71,58.16q-2.32,0-2.32,3.54v2.36h4.63V61.7C73.28,59.34,72.51,58.16,71,58.16Z" transform="translate(-7.07)"/><path class="a2cdbe15-872a-40a4-a8d1-bfb37fb0c9ce" d="M53.81,58.16a3.31,3.31,0,0,0-2.31,1.13V74.85A3.3,3.3,0,0,0,53.81,76c1.33,0,2-1.14,2-3.44V61.65C55.82,59.34,55.15,58.16,53.81,58.16Z" transform="translate(-7.07)"/><path class="a2cdbe15-872a-40a4-a8d1-bfb37fb0c9ce" d="M56.4,35c1.71,0,3.48-1,5.34-3.17v2.81h4.68V8.82H61.74V28.54c-1,1.46-2,2.19-3,2.19a1.07,1.07,0,0,1-1.1-1.09,10.84,10.84,0,0,1-.06-1.82v-19H53v20.4a13,13,0,0,0,.41,3.84A2.87,2.87,0,0,0,56.4,35Z" transform="translate(-7.07)"/><path class="a2cdbe15-872a-40a4-a8d1-bfb37fb0c9ce" d="M23.85,20.6v14H29v-14L35.27,0H30L26.49,13.6,22.81,0H17.36c1.09,3.21,2.23,6.43,3.32,9.65A85.28,85.28,0,0,1,23.85,20.6Z" transform="translate(-7.07)"/><path class="a2cdbe15-872a-40a4-a8d1-bfb37fb0c9ce" d="M42.22,35a6.37,6.37,0,0,0,5.45-2.64c1-1.29,1.45-3.33,1.45-6.07v-9c0-2.76-.47-4.77-1.45-6.08a6.36,6.36,0,0,0-5.45-2.65,6.36,6.36,0,0,0-5.44,2.65c-1,1.3-1.46,3.32-1.46,6.08v9c0,2.74.47,4.78,1.46,6.07A6.37,6.37,0,0,0,42.22,35ZM40,16.29c0-2.39.72-3.58,2.23-3.58s2.23,1.19,2.23,3.58V27.15c0,2.39-.72,3.58-2.23,3.58S40,29.53,40,27.15V16.29Z" transform="translate(-7.07)"/></svg>