<svg id="31ed7952-4999-4db8-8476-4f458a7f3404" data-name="Capa 1" xmlns="http://www.w3.org/2000/svg" viewBox="0 0 512 492"><defs><style>.\32 f23822a-8bf2-488b-82e6-19aa5b5110b0{fill:#d8dce1;}.d58c2afd-2dbc-41e7-90f1-5e994ea16bfe{fill:#0079bf;}.\31 922bb35-6616-4cb4-bcc7-96f07ed88d1c{fill:#fff;}.\34 9a435dc-ff1a-42bd-8a5a-a4ba8b6d19c8{fill:#5c546a;}.a22496c4-811a-43dc-bdbb-a89578d115d8{fill:#f6511d;}.\31 d8d1af8-03b4-4783-887d-c650e4bf5c68{fill:#d81159;}</style></defs><title>1</title><path class="2f23822a-8bf2-488b-82e6-19aa5b5110b0" d="M0,134V462a40,40,0,0,0,40,40H472a40,40,0,0,0,40-40V134H0Z" transform="translate(0 -10)"/><path class="d58c2afd-2dbc-41e7-90f1-5e994ea16bfe" d="M472,22H40A40,40,0,0,0,0,62v72H512V62A40,40,0,0,0,472,22ZM64,102A24,24,0,1,1,88,78,24,24,0,0,1,64,102Zm384,0a24,24,0,1,1,24-24A24,24,0,0,1,448,102Z" transform="translate(0 -10)"/><path class="1922bb35-6616-4cb4-bcc7-96f07ed88d1c" d="M256,206a32,32,0,1,0,32,32A32,32,0,0,0,256,206Z" transform="translate(0 -10)"/><path class="1922bb35-6616-4cb4-bcc7-96f07ed88d1c" d="M176,206a32,32,0,1,0,32,32A32,32,0,0,0,176,206Z" transform="translate(0 -10)"/><path class="1922bb35-6616-4cb4-bcc7-96f07ed88d1c" d="M96,206a32,32,0,1,0,32,32A32,32,0,0,0,96,206Z" transform="translate(0 -10)"/><path class="1922bb35-6616-4cb4-bcc7-96f07ed88d1c" d="M336,206a32,32,0,1,0,32,32A32,32,0,0,0,336,206Z" transform="translate(0 -10)"/><path class="1922bb35-6616-4cb4-bcc7-96f07ed88d1c" d="M416,270a32,32,0,1,0-32-32A32,32,0,0,0,416,270Z" transform="translate(0 -10)"/><path class="1922bb35-6616-4cb4-bcc7-96f07ed88d1c" d="M256,286a32,32,0,1,0,32,32A32,32,0,0,0,256,286Z" transform="translate(0 -10)"/><path class="1922bb35-6616-4cb4-bcc7-96f07ed88d1c" d="M176,286a32,32,0,1,0,32,32A32,32,0,0,0,176,286Z" transform="translate(0 -10)"/><path class="1922bb35-6616-4cb4-bcc7-96f07ed88d1c" d="M96,286a32,32,0,1,0,32,32A32,32,0,0,0,96,286Z" transform="translate(0 -10)"/><path class="1922bb35-6616-4cb4-bcc7-96f07ed88d1c" d="M336,286a32,32,0,1,0,32,32A32,32,0,0,0,336,286Z" transform="translate(0 -10)"/><path class="1922bb35-6616-4cb4-bcc7-96f07ed88d1c" d="M416,286a32,32,0,1,0,32,32A32,32,0,0,0,416,286Z" transform="translate(0 -10)"/><path class="1922bb35-6616-4cb4-bcc7-96f07ed88d1c" d="M256,366a32,32,0,1,0,32,32A32,32,0,0,0,256,366Z" transform="translate(0 -10)"/><path class="1922bb35-6616-4cb4-bcc7-96f07ed88d1c" d="M176,366a32,32,0,1,0,32,32A32,32,0,0,0,176,366Z" transform="translate(0 -10)"/><path class="1922bb35-6616-4cb4-bcc7-96f07ed88d1c" d="M96,366a32,32,0,1,0,32,32A32,32,0,0,0,96,366Z" transform="translate(0 -10)"/><path class="1922bb35-6616-4cb4-bcc7-96f07ed88d1c" d="M336,366a32,32,0,1,0,32,32A32,32,0,0,0,336,366Z" transform="translate(0 -10)"/><path class="1922bb35-6616-4cb4-bcc7-96f07ed88d1c" d="M416,366a32,32,0,1,0,32,32A32,32,0,0,0,416,366Z" transform="translate(0 -10)"/><path class="49a435dc-ff1a-42bd-8a5a-a4ba8b6d19c8" d="M64,90A12,12,0,0,1,52,78V22a12,12,0,0,1,24,0V78A12,12,0,0,1,64,90Z" transform="translate(0 -10)"/><path class="49a435dc-ff1a-42bd-8a5a-a4ba8b6d19c8" d="M448,90a12,12,0,0,1-12-12V22a12,12,0,0,1,24,0V78A12,12,0,0,1,448,90Z" transform="translate(0 -10)"/><circle class="d58c2afd-2dbc-41e7-90f1-5e994ea16bfe" cx="96" cy="228" r="32"/><circle class="a22496c4-811a-43dc-bdbb-a89578d115d8" cx="256" cy="388" r="32"/><circle class="1d8d1af8-03b4-4783-887d-c650e4bf5c68" cx="336" cy="308" r="32"/></svg>