<?xml version="1.0" standalone="no"?>
<!DOCTYPE svg PUBLIC "-//W3C//DTD SVG 20010904//EN"
 "http://www.w3.org/TR/2001/REC-SVG-20010904/DTD/svg10.dtd">
<svg version="1.0" xmlns="http://www.w3.org/2000/svg"
 width="674.000000pt" height="674.000000pt" viewBox="0 0 674.000000 674.000000"
 preserveAspectRatio="xMidYMid meet">
<metadata>
Created by potrace 1.11, written by Peter Selinger 2001-2013
</metadata>
<g transform="translate(0.000000,674.000000) scale(0.100000,-0.100000)"
fill="#000000" stroke="none">
<path d="M3176 5869 c-613 -65 -1248 -481 -1747 -1144 -307 -410 -460 -748
-476 -1056 -10 -194 24 -280 168 -433 106 -112 157 -139 259 -138 82 0 157 28
255 93 90 60 263 224 345 326 62 77 340 486 419 616 160 265 262 373 432 461
135 71 239 97 399 103 152 6 267 -13 435 -68 508 -168 1041 -688 1205 -1177
80 -239 80 -517 0 -762 -53 -161 -127 -299 -252 -468 -117 -158 -176 -215
-723 -702 -280 -250 -351 -333 -370 -432 -22 -118 122 -231 274 -215 221 24
536 190 874 460 376 301 551 480 733 754 202 302 318 630 363 1023 14 119 6
455 -13 575 -128 812 -664 1571 -1376 1948 -368 195 -798 279 -1204 236z"/>
<path d="M2745 3869 c-190 -28 -368 -110 -465 -215 -131 -141 -179 -275 -160
-445 20 -176 116 -333 375 -612 165 -179 570 -578 647 -639 90 -72 206 -141
319 -190 86 -37 103 -41 201 -46 125 -5 202 13 307 75 84 49 205 167 230 224
56 123 12 213 -207 415 -115 106 -137 133 -233 278 -149 226 -419 695 -419
728 0 28 -117 302 -143 333 -70 85 -252 123 -452 94z"/>
</g>
</svg>
